<mxfile host="app.diagrams.net" agent="Mozilla/5.0 (Macintosh; Intel Mac OS X 10.15; rv:129.0) Gecko/20100101 Firefox/129.0" version="24.7.7">
  <diagram name="Page-1" id="50v8xaEIkd5Ty6h-mn-N">
    <mxGraphModel dx="2739" dy="1201" grid="1" gridSize="10" guides="1" tooltips="1" connect="1" arrows="1" fold="1" page="1" pageScale="1" pageWidth="850" pageHeight="1100" math="0" shadow="0">
      <root>
        <mxCell id="0" />
        <mxCell id="1" parent="0" />
        <mxCell id="KQ8KpgigSJFvTlivIibW-1" value="" style="whiteSpace=wrap;html=1;fontSize=14;fillColor=none;" parent="1" vertex="1">
          <mxGeometry x="-370" y="280" width="560" height="440" as="geometry" />
        </mxCell>
        <mxCell id="KQ8KpgigSJFvTlivIibW-35" value="AWS Cloud" style="points=[[0,0],[0.25,0],[0.5,0],[0.75,0],[1,0],[1,0.25],[1,0.5],[1,0.75],[1,1],[0.75,1],[0.5,1],[0.25,1],[0,1],[0,0.75],[0,0.5],[0,0.25]];outlineConnect=0;gradientColor=none;html=1;whiteSpace=wrap;fontSize=14;fontStyle=0;container=1;pointerEvents=0;collapsible=0;recursiveResize=0;shape=mxgraph.aws4.group;grIcon=mxgraph.aws4.group_aws_cloud_alt;strokeColor=#232F3E;fillColor=none;verticalAlign=top;align=left;spacingLeft=30;fontColor=#232F3E;dashed=0;" parent="1" vertex="1">
          <mxGeometry x="240" y="280" width="940" height="440" as="geometry" />
        </mxCell>
        <mxCell id="KQ8KpgigSJFvTlivIibW-2" style="edgeStyle=orthogonalEdgeStyle;rounded=0;orthogonalLoop=1;jettySize=auto;html=1;fontSize=14;" parent="KQ8KpgigSJFvTlivIibW-35" source="KQ8KpgigSJFvTlivIibW-3" target="KQ8KpgigSJFvTlivIibW-5" edge="1">
          <mxGeometry relative="1" as="geometry" />
        </mxCell>
        <mxCell id="KQ8KpgigSJFvTlivIibW-3" value="&lt;div style=&quot;font-size: 14px;&quot;&gt;runtask&lt;/div&gt;&lt;div style=&quot;font-size: 14px;&quot;&gt;eventbridge&lt;/div&gt;" style="sketch=0;outlineConnect=0;fontColor=#232F3E;gradientColor=none;fillColor=#D45B07;strokeColor=none;dashed=0;verticalLabelPosition=bottom;verticalAlign=top;align=center;html=1;fontSize=14;fontStyle=0;aspect=fixed;pointerEvents=1;shape=mxgraph.aws4.lambda_function;" parent="KQ8KpgigSJFvTlivIibW-35" vertex="1">
          <mxGeometry x="270" y="72.75" width="48" height="48" as="geometry" />
        </mxCell>
        <mxCell id="KQ8KpgigSJFvTlivIibW-4" style="edgeStyle=orthogonalEdgeStyle;rounded=0;orthogonalLoop=1;jettySize=auto;html=1;fontSize=14;" parent="KQ8KpgigSJFvTlivIibW-35" source="KQ8KpgigSJFvTlivIibW-5" edge="1">
          <mxGeometry relative="1" as="geometry">
            <mxPoint x="520" y="95.75" as="targetPoint" />
          </mxGeometry>
        </mxCell>
        <mxCell id="KQ8KpgigSJFvTlivIibW-5" value="&lt;div&gt;Amazon&lt;/div&gt;&lt;div&gt;EventBridge&lt;br&gt;&lt;/div&gt;" style="sketch=0;points=[[0,0,0],[0.25,0,0],[0.5,0,0],[0.75,0,0],[1,0,0],[0,1,0],[0.25,1,0],[0.5,1,0],[0.75,1,0],[1,1,0],[0,0.25,0],[0,0.5,0],[0,0.75,0],[1,0.25,0],[1,0.5,0],[1,0.75,0]];outlineConnect=0;fontColor=#232F3E;gradientColor=#FF4F8B;gradientDirection=north;fillColor=#BC1356;strokeColor=#ffffff;dashed=0;verticalLabelPosition=bottom;verticalAlign=top;align=center;html=1;fontSize=14;fontStyle=0;aspect=fixed;shape=mxgraph.aws4.resourceIcon;resIcon=mxgraph.aws4.eventbridge;" parent="KQ8KpgigSJFvTlivIibW-35" vertex="1">
          <mxGeometry x="398.25" y="70.75" width="51.75" height="51.75" as="geometry" />
        </mxCell>
        <mxCell id="KQ8KpgigSJFvTlivIibW-6" value="AWS Step Functions workflow" style="points=[[0,0],[0.25,0],[0.5,0],[0.75,0],[1,0],[1,0.25],[1,0.5],[1,0.75],[1,1],[0.75,1],[0.5,1],[0.25,1],[0,1],[0,0.75],[0,0.5],[0,0.25]];outlineConnect=0;gradientColor=none;html=1;whiteSpace=wrap;fontSize=14;fontStyle=0;container=1;pointerEvents=0;collapsible=0;recursiveResize=0;shape=mxgraph.aws4.group;grIcon=mxgraph.aws4.group_aws_step_functions_workflow;strokeColor=#CD2264;fillColor=none;verticalAlign=top;align=left;spacingLeft=30;fontColor=#CD2264;dashed=0;" parent="KQ8KpgigSJFvTlivIibW-35" vertex="1">
          <mxGeometry x="524" y="68.25" width="266" height="313.5" as="geometry" />
        </mxCell>
        <mxCell id="KQ8KpgigSJFvTlivIibW-11" value="" style="group;fontSize=14;" parent="KQ8KpgigSJFvTlivIibW-6" vertex="1" connectable="0">
          <mxGeometry x="39" y="223.5" width="220" height="60" as="geometry" />
        </mxCell>
        <mxCell id="KQ8KpgigSJFvTlivIibW-12" value="" style="whiteSpace=wrap;html=1;fontSize=14;" parent="KQ8KpgigSJFvTlivIibW-11" vertex="1">
          <mxGeometry width="202" height="60" as="geometry" />
        </mxCell>
        <mxCell id="KQ8KpgigSJFvTlivIibW-13" value="" style="sketch=0;outlineConnect=0;fontColor=#232F3E;gradientColor=none;fillColor=#D45B07;strokeColor=none;dashed=0;verticalLabelPosition=bottom;verticalAlign=top;align=center;html=1;fontSize=14;fontStyle=0;aspect=fixed;pointerEvents=1;shape=mxgraph.aws4.lambda_function;" parent="KQ8KpgigSJFvTlivIibW-11" vertex="1">
          <mxGeometry x="12" y="6" width="48" height="48" as="geometry" />
        </mxCell>
        <mxCell id="KQ8KpgigSJFvTlivIibW-14" value="runtask_callback" style="text;html=1;resizable=0;autosize=1;align=left;verticalAlign=middle;points=[];fillColor=none;strokeColor=none;rounded=0;fontSize=14;" parent="KQ8KpgigSJFvTlivIibW-11" vertex="1">
          <mxGeometry x="72" y="15" width="130" height="30" as="geometry" />
        </mxCell>
        <mxCell id="KQ8KpgigSJFvTlivIibW-15" value="" style="group;fontSize=14;" parent="KQ8KpgigSJFvTlivIibW-6" vertex="1" connectable="0">
          <mxGeometry x="39" y="43.5" width="202" height="60" as="geometry" />
        </mxCell>
        <mxCell id="KQ8KpgigSJFvTlivIibW-16" value="" style="whiteSpace=wrap;html=1;fontSize=14;" parent="KQ8KpgigSJFvTlivIibW-15" vertex="1">
          <mxGeometry width="202" height="60" as="geometry" />
        </mxCell>
        <mxCell id="KQ8KpgigSJFvTlivIibW-17" value="" style="sketch=0;outlineConnect=0;fontColor=#232F3E;gradientColor=none;fillColor=#D45B07;strokeColor=none;dashed=0;verticalLabelPosition=bottom;verticalAlign=top;align=center;html=1;fontSize=14;fontStyle=0;aspect=fixed;pointerEvents=1;shape=mxgraph.aws4.lambda_function;" parent="KQ8KpgigSJFvTlivIibW-15" vertex="1">
          <mxGeometry x="12" y="6" width="48" height="48" as="geometry" />
        </mxCell>
        <mxCell id="KQ8KpgigSJFvTlivIibW-18" value="runtask_request" style="text;html=1;resizable=0;autosize=1;align=left;verticalAlign=middle;points=[];fillColor=none;strokeColor=none;rounded=0;fontSize=14;" parent="KQ8KpgigSJFvTlivIibW-15" vertex="1">
          <mxGeometry x="72" y="15" width="120" height="30" as="geometry" />
        </mxCell>
        <mxCell id="KQ8KpgigSJFvTlivIibW-19" style="edgeStyle=orthogonalEdgeStyle;rounded=0;orthogonalLoop=1;jettySize=auto;html=1;entryX=0.5;entryY=0;entryDx=0;entryDy=0;fontSize=14;startArrow=none;startFill=0;" parent="KQ8KpgigSJFvTlivIibW-6" source="KQ8KpgigSJFvTlivIibW-16" target="KQ8KpgigSJFvTlivIibW-8" edge="1">
          <mxGeometry relative="1" as="geometry" />
        </mxCell>
        <mxCell id="KQ8KpgigSJFvTlivIibW-20" style="edgeStyle=orthogonalEdgeStyle;rounded=0;orthogonalLoop=1;jettySize=auto;html=1;exitX=0.5;exitY=1;exitDx=0;exitDy=0;entryX=0.5;entryY=0;entryDx=0;entryDy=0;fontSize=14;startArrow=none;startFill=0;" parent="KQ8KpgigSJFvTlivIibW-6" source="KQ8KpgigSJFvTlivIibW-8" target="KQ8KpgigSJFvTlivIibW-12" edge="1">
          <mxGeometry relative="1" as="geometry" />
        </mxCell>
        <mxCell id="KQ8KpgigSJFvTlivIibW-8" value="" style="whiteSpace=wrap;html=1;fontSize=14;" parent="KQ8KpgigSJFvTlivIibW-6" vertex="1">
          <mxGeometry x="39" y="133.5" width="202" height="57.375" as="geometry" />
        </mxCell>
        <mxCell id="KQ8KpgigSJFvTlivIibW-9" value="" style="sketch=0;outlineConnect=0;fontColor=#232F3E;gradientColor=none;fillColor=#D45B07;strokeColor=none;dashed=0;verticalLabelPosition=bottom;verticalAlign=top;align=center;html=1;fontSize=14;fontStyle=0;aspect=fixed;pointerEvents=1;shape=mxgraph.aws4.lambda_function;" parent="KQ8KpgigSJFvTlivIibW-6" vertex="1">
          <mxGeometry x="51" y="139.2375" width="45.900000000000006" height="45.900000000000006" as="geometry" />
        </mxCell>
        <mxCell id="KQ8KpgigSJFvTlivIibW-10" value="runtask_fulfillment" style="text;html=1;resizable=0;autosize=1;align=left;verticalAlign=middle;points=[];fillColor=none;strokeColor=none;rounded=0;fontSize=14;" parent="KQ8KpgigSJFvTlivIibW-6" vertex="1">
          <mxGeometry x="111" y="147.84375" width="140" height="30" as="geometry" />
        </mxCell>
        <mxCell id="KQ8KpgigSJFvTlivIibW-37" style="edgeStyle=orthogonalEdgeStyle;rounded=0;orthogonalLoop=1;jettySize=auto;html=1;fontSize=14;startArrow=none;startFill=0;" parent="KQ8KpgigSJFvTlivIibW-35" source="KQ8KpgigSJFvTlivIibW-38" target="KQ8KpgigSJFvTlivIibW-40" edge="1">
          <mxGeometry relative="1" as="geometry" />
        </mxCell>
        <mxCell id="KQ8KpgigSJFvTlivIibW-38" value="&lt;div style=&quot;font-size: 14px;&quot;&gt;AWS &lt;br style=&quot;font-size: 14px;&quot;&gt;&lt;/div&gt;&lt;div style=&quot;font-size: 14px;&quot;&gt;Secrets&lt;/div&gt;&lt;div style=&quot;font-size: 14px;&quot;&gt;Manager&lt;br style=&quot;font-size: 14px;&quot;&gt;&lt;/div&gt;" style="sketch=0;points=[[0,0,0],[0.25,0,0],[0.5,0,0],[0.75,0,0],[1,0,0],[0,1,0],[0.25,1,0],[0.5,1,0],[0.75,1,0],[1,1,0],[0,0.25,0],[0,0.5,0],[0,0.75,0],[1,0.25,0],[1,0.5,0],[1,0.75,0]];outlineConnect=0;fontColor=#232F3E;gradientColor=#F54749;gradientDirection=north;fillColor=#C7131F;strokeColor=#ffffff;dashed=0;verticalLabelPosition=bottom;verticalAlign=top;align=center;html=1;fontSize=14;fontStyle=0;aspect=fixed;shape=mxgraph.aws4.resourceIcon;resIcon=mxgraph.aws4.secrets_manager;" parent="KQ8KpgigSJFvTlivIibW-35" vertex="1">
          <mxGeometry x="400" y="191.75" width="50" height="50" as="geometry" />
        </mxCell>
        <mxCell id="KQ8KpgigSJFvTlivIibW-40" value="HMAC key" style="sketch=0;outlineConnect=0;fontColor=#232F3E;gradientColor=none;fillColor=#BF0816;strokeColor=none;dashed=0;verticalLabelPosition=bottom;verticalAlign=top;align=center;html=1;fontSize=14;fontStyle=0;aspect=fixed;pointerEvents=1;shape=mxgraph.aws4.encrypted_data;" parent="KQ8KpgigSJFvTlivIibW-35" vertex="1">
          <mxGeometry x="278" y="196.75" width="31.79" height="40" as="geometry" />
        </mxCell>
        <mxCell id="KQ8KpgigSJFvTlivIibW-45" style="edgeStyle=orthogonalEdgeStyle;rounded=0;orthogonalLoop=1;jettySize=auto;html=1;fontSize=14;startArrow=none;startFill=0;" parent="KQ8KpgigSJFvTlivIibW-35" source="KQ8KpgigSJFvTlivIibW-40" edge="1">
          <mxGeometry relative="1" as="geometry">
            <mxPoint x="294" y="160" as="targetPoint" />
          </mxGeometry>
        </mxCell>
        <mxCell id="yHnW5Rzm3PxU6Jlyl-KG-9" style="edgeStyle=orthogonalEdgeStyle;rounded=0;orthogonalLoop=1;jettySize=auto;html=1;fontSize=14;" edge="1" parent="KQ8KpgigSJFvTlivIibW-35" target="yHnW5Rzm3PxU6Jlyl-KG-3">
          <mxGeometry relative="1" as="geometry">
            <mxPoint x="178" y="160" as="sourcePoint" />
          </mxGeometry>
        </mxCell>
        <mxCell id="yHnW5Rzm3PxU6Jlyl-KG-14" style="edgeStyle=orthogonalEdgeStyle;rounded=0;orthogonalLoop=1;jettySize=auto;html=1;fontSize=14;" edge="1" parent="KQ8KpgigSJFvTlivIibW-35" source="yHnW5Rzm3PxU6Jlyl-KG-1" target="KQ8KpgigSJFvTlivIibW-3">
          <mxGeometry relative="1" as="geometry" />
        </mxCell>
        <mxCell id="yHnW5Rzm3PxU6Jlyl-KG-1" value="Amazon&lt;br style=&quot;font-size: 14px;&quot;&gt;&lt;div style=&quot;font-size: 14px;&quot;&gt;Cloudfront&lt;/div&gt;" style="sketch=0;points=[[0,0,0],[0.25,0,0],[0.5,0,0],[0.75,0,0],[1,0,0],[0,1,0],[0.25,1,0],[0.5,1,0],[0.75,1,0],[1,1,0],[0,0.25,0],[0,0.5,0],[0,0.75,0],[1,0.25,0],[1,0.5,0],[1,0.75,0]];outlineConnect=0;fontColor=#232F3E;fillColor=#8C4FFF;strokeColor=#ffffff;dashed=0;verticalLabelPosition=bottom;verticalAlign=top;align=center;html=1;fontSize=14;fontStyle=0;aspect=fixed;shape=mxgraph.aws4.resourceIcon;resIcon=mxgraph.aws4.cloudfront;" vertex="1" parent="KQ8KpgigSJFvTlivIibW-35">
          <mxGeometry x="152" y="70.88" width="51.75" height="51.75" as="geometry" />
        </mxCell>
        <mxCell id="yHnW5Rzm3PxU6Jlyl-KG-13" style="edgeStyle=orthogonalEdgeStyle;rounded=0;orthogonalLoop=1;jettySize=auto;html=1;fontSize=14;" edge="1" parent="KQ8KpgigSJFvTlivIibW-35" source="yHnW5Rzm3PxU6Jlyl-KG-2" target="yHnW5Rzm3PxU6Jlyl-KG-1">
          <mxGeometry relative="1" as="geometry">
            <mxPoint x="105" y="96.79999999999995" as="sourcePoint" />
          </mxGeometry>
        </mxCell>
        <mxCell id="yHnW5Rzm3PxU6Jlyl-KG-2" value="&lt;div style=&quot;font-size: 14px;&quot;&gt;AWS&lt;/div&gt;&lt;div style=&quot;font-size: 14px;&quot;&gt;WAFv2&lt;/div&gt;" style="sketch=0;points=[[0,0,0],[0.25,0,0],[0.5,0,0],[0.75,0,0],[1,0,0],[0,1,0],[0.25,1,0],[0.5,1,0],[0.75,1,0],[1,1,0],[0,0.25,0],[0,0.5,0],[0,0.75,0],[1,0.25,0],[1,0.5,0],[1,0.75,0]];outlineConnect=0;fontColor=#232F3E;fillColor=#DD344C;strokeColor=#ffffff;dashed=0;verticalLabelPosition=bottom;verticalAlign=top;align=center;html=1;fontSize=14;fontStyle=0;aspect=fixed;shape=mxgraph.aws4.resourceIcon;resIcon=mxgraph.aws4.waf;" vertex="1" parent="KQ8KpgigSJFvTlivIibW-35">
          <mxGeometry x="40" y="71.75" width="50" height="50" as="geometry" />
        </mxCell>
        <mxCell id="yHnW5Rzm3PxU6Jlyl-KG-3" value="&lt;div style=&quot;font-size: 14px;&quot;&gt;runtask&lt;/div&gt;&lt;div style=&quot;font-size: 14px;&quot;&gt;edge&lt;br style=&quot;font-size: 14px;&quot;&gt;&lt;/div&gt;" style="sketch=0;outlineConnect=0;fontColor=#232F3E;gradientColor=none;fillColor=#D45B07;strokeColor=none;dashed=0;verticalLabelPosition=bottom;verticalAlign=top;align=center;html=1;fontSize=14;fontStyle=0;aspect=fixed;pointerEvents=1;shape=mxgraph.aws4.lambda_function;" vertex="1" parent="KQ8KpgigSJFvTlivIibW-35">
          <mxGeometry x="153.88" y="201" width="48" height="48" as="geometry" />
        </mxCell>
        <mxCell id="yHnW5Rzm3PxU6Jlyl-KG-16" value="Amazon Bedrock" style="sketch=0;points=[[0,0,0],[0.25,0,0],[0.5,0,0],[0.75,0,0],[1,0,0],[0,1,0],[0.25,1,0],[0.5,1,0],[0.75,1,0],[1,1,0],[0,0.25,0],[0,0.5,0],[0,0.75,0],[1,0.25,0],[1,0.5,0],[1,0.75,0]];outlineConnect=0;fontColor=#232F3E;fillColor=#01A88D;strokeColor=#ffffff;dashed=0;verticalLabelPosition=bottom;verticalAlign=top;align=center;html=1;fontSize=14;fontStyle=0;aspect=fixed;shape=mxgraph.aws4.resourceIcon;resIcon=mxgraph.aws4.bedrock;" vertex="1" parent="KQ8KpgigSJFvTlivIibW-35">
          <mxGeometry x="830" y="192.09" width="78" height="78" as="geometry" />
        </mxCell>
        <mxCell id="yHnW5Rzm3PxU6Jlyl-KG-18" style="edgeStyle=orthogonalEdgeStyle;rounded=0;orthogonalLoop=1;jettySize=auto;html=1;" edge="1" parent="KQ8KpgigSJFvTlivIibW-35" source="KQ8KpgigSJFvTlivIibW-8" target="yHnW5Rzm3PxU6Jlyl-KG-16">
          <mxGeometry relative="1" as="geometry" />
        </mxCell>
        <mxCell id="KQ8KpgigSJFvTlivIibW-42" style="edgeStyle=orthogonalEdgeStyle;rounded=0;orthogonalLoop=1;jettySize=auto;html=1;entryX=1;entryY=0.5;entryDx=0;entryDy=0;fontSize=14;startArrow=classic;startFill=1;" parent="1" source="KQ8KpgigSJFvTlivIibW-47" target="KQ8KpgigSJFvTlivIibW-28" edge="1">
          <mxGeometry relative="1" as="geometry">
            <mxPoint x="-87.40000000000009" y="539.52" as="targetPoint" />
          </mxGeometry>
        </mxCell>
        <mxCell id="KQ8KpgigSJFvTlivIibW-43" style="edgeStyle=orthogonalEdgeStyle;rounded=0;orthogonalLoop=1;jettySize=auto;html=1;entryX=0.5;entryY=1;entryDx=0;entryDy=0;fontSize=14;startArrow=none;startFill=0;" parent="1" source="KQ8KpgigSJFvTlivIibW-12" target="KQ8KpgigSJFvTlivIibW-47" edge="1">
          <mxGeometry relative="1" as="geometry" />
        </mxCell>
        <mxCell id="KQ8KpgigSJFvTlivIibW-46" value="" style="group;fontSize=14;" parent="1" vertex="1" connectable="0">
          <mxGeometry x="-66" y="460" width="240" height="90" as="geometry" />
        </mxCell>
        <mxCell id="KQ8KpgigSJFvTlivIibW-47" value="" style="whiteSpace=wrap;html=1;fontSize=14;fillColor=#E6E6E6;" parent="KQ8KpgigSJFvTlivIibW-46" vertex="1">
          <mxGeometry width="205" height="90" as="geometry" />
        </mxCell>
        <mxCell id="KQ8KpgigSJFvTlivIibW-48" value="" style="sketch=0;html=1;aspect=fixed;strokeColor=none;shadow=0;align=center;verticalAlign=top;fillColor=#000066;shape=mxgraph.gcp2.gear;fontSize=14;" parent="KQ8KpgigSJFvTlivIibW-46" vertex="1">
          <mxGeometry x="14" y="26" width="35" height="35" as="geometry" />
        </mxCell>
        <mxCell id="KQ8KpgigSJFvTlivIibW-49" value="&lt;div style=&quot;font-size: 14px;&quot;&gt;&lt;span style=&quot;font-size: 14px;&quot;&gt;&lt;b style=&quot;font-size: 14px;&quot;&gt;&amp;nbsp;HCP Terraform&lt;/b&gt;&lt;/span&gt;&lt;/div&gt;&lt;div style=&quot;font-size: 14px;&quot;&gt;&lt;span style=&quot;font-size: 14px;&quot;&gt;&lt;b style=&quot;font-size: 14px;&quot;&gt;&amp;nbsp; &amp;nbsp; r&lt;/b&gt;&lt;/span&gt;&lt;b style=&quot;font-size: 14px; background-color: initial;&quot;&gt;un task&lt;/b&gt;&lt;/div&gt;" style="text;html=1;align=left;verticalAlign=middle;resizable=0;points=[];autosize=1;strokeColor=none;fillColor=none;fontSize=14;" parent="KQ8KpgigSJFvTlivIibW-46" vertex="1">
          <mxGeometry x="70" y="20" width="130" height="50" as="geometry" />
        </mxCell>
        <mxCell id="KQ8KpgigSJFvTlivIibW-51" value="Terraform Plan" style="sketch=0;aspect=fixed;pointerEvents=1;shadow=0;dashed=0;html=1;strokeColor=none;labelPosition=center;verticalLabelPosition=bottom;verticalAlign=top;align=center;fillColor=#00188D;shape=mxgraph.azure.script_file;fontSize=14;" parent="1" vertex="1">
          <mxGeometry x="70" y="300" width="28.2" height="30" as="geometry" />
        </mxCell>
        <mxCell id="KQ8KpgigSJFvTlivIibW-52" value="&lt;div style=&quot;font-size: 14px;&quot;&gt;Amazon Bedrock&lt;/div&gt;&lt;div style=&quot;font-size: 14px;&quot;&gt;TF Plan analysis&lt;br style=&quot;font-size: 14px;&quot;&gt;&lt;/div&gt;" style="sketch=0;aspect=fixed;pointerEvents=1;shadow=0;dashed=0;html=1;strokeColor=none;labelPosition=center;verticalLabelPosition=bottom;verticalAlign=top;align=center;fillColor=#00188D;shape=mxgraph.azure.script_file;fontSize=14;" parent="1" vertex="1">
          <mxGeometry x="54" y="630" width="28.2" height="30" as="geometry" />
        </mxCell>
        <mxCell id="KQ8KpgigSJFvTlivIibW-60" value="" style="group;fontSize=14;" parent="1" vertex="1" connectable="0">
          <mxGeometry x="-320" y="375" width="200" height="260" as="geometry" />
        </mxCell>
        <mxCell id="KQ8KpgigSJFvTlivIibW-23" value="" style="group;fontSize=14;" parent="KQ8KpgigSJFvTlivIibW-60" vertex="1" connectable="0">
          <mxGeometry width="200" height="60" as="geometry" />
        </mxCell>
        <mxCell id="KQ8KpgigSJFvTlivIibW-24" value="" style="whiteSpace=wrap;html=1;fontSize=14;" parent="KQ8KpgigSJFvTlivIibW-23" vertex="1">
          <mxGeometry width="200" height="60" as="geometry" />
        </mxCell>
        <mxCell id="KQ8KpgigSJFvTlivIibW-25" value="" style="sketch=0;aspect=fixed;pointerEvents=1;shadow=0;dashed=0;html=1;strokeColor=none;labelPosition=center;verticalLabelPosition=bottom;verticalAlign=top;align=center;fillColor=#00188D;shape=mxgraph.azure.script_file;fontSize=14;" parent="KQ8KpgigSJFvTlivIibW-23" vertex="1">
          <mxGeometry x="10" y="9" width="37.6" height="40" as="geometry" />
        </mxCell>
        <mxCell id="KQ8KpgigSJFvTlivIibW-26" value="&lt;font style=&quot;font-size: 14px;&quot;&gt;Terraform init&lt;/font&gt;" style="text;html=1;align=left;verticalAlign=middle;resizable=0;points=[];autosize=1;strokeColor=none;fillColor=none;fontSize=14;fontStyle=1" parent="KQ8KpgigSJFvTlivIibW-23" vertex="1">
          <mxGeometry x="53.5" y="15" width="110" height="30" as="geometry" />
        </mxCell>
        <mxCell id="KQ8KpgigSJFvTlivIibW-27" value="" style="group;fontSize=14;" parent="KQ8KpgigSJFvTlivIibW-60" vertex="1" connectable="0">
          <mxGeometry y="100" width="200" height="60" as="geometry" />
        </mxCell>
        <mxCell id="KQ8KpgigSJFvTlivIibW-28" value="" style="whiteSpace=wrap;html=1;fontSize=14;" parent="KQ8KpgigSJFvTlivIibW-27" vertex="1">
          <mxGeometry width="200" height="60" as="geometry" />
        </mxCell>
        <mxCell id="KQ8KpgigSJFvTlivIibW-29" value="" style="sketch=0;aspect=fixed;pointerEvents=1;shadow=0;dashed=0;html=1;strokeColor=none;labelPosition=center;verticalLabelPosition=bottom;verticalAlign=top;align=center;fillColor=#00188D;shape=mxgraph.azure.script_file;fontSize=14;" parent="KQ8KpgigSJFvTlivIibW-27" vertex="1">
          <mxGeometry x="10" y="9" width="37.6" height="40" as="geometry" />
        </mxCell>
        <mxCell id="KQ8KpgigSJFvTlivIibW-30" value="&lt;font style=&quot;font-size: 14px;&quot;&gt;Terraform Plan&lt;/font&gt;" style="text;html=1;align=left;verticalAlign=middle;resizable=0;points=[];autosize=1;strokeColor=none;fillColor=none;fontSize=14;fontStyle=1" parent="KQ8KpgigSJFvTlivIibW-27" vertex="1">
          <mxGeometry x="53.5" y="15" width="120" height="30" as="geometry" />
        </mxCell>
        <mxCell id="KQ8KpgigSJFvTlivIibW-31" value="" style="group;fontSize=14;" parent="KQ8KpgigSJFvTlivIibW-60" vertex="1" connectable="0">
          <mxGeometry y="200" width="200" height="60" as="geometry" />
        </mxCell>
        <mxCell id="KQ8KpgigSJFvTlivIibW-32" value="" style="whiteSpace=wrap;html=1;fontSize=14;" parent="KQ8KpgigSJFvTlivIibW-31" vertex="1">
          <mxGeometry width="200" height="60" as="geometry" />
        </mxCell>
        <mxCell id="KQ8KpgigSJFvTlivIibW-33" value="" style="sketch=0;aspect=fixed;pointerEvents=1;shadow=0;dashed=0;html=1;strokeColor=none;labelPosition=center;verticalLabelPosition=bottom;verticalAlign=top;align=center;fillColor=#00188D;shape=mxgraph.azure.script_file;fontSize=14;" parent="KQ8KpgigSJFvTlivIibW-31" vertex="1">
          <mxGeometry x="10" y="9" width="37.6" height="40" as="geometry" />
        </mxCell>
        <mxCell id="KQ8KpgigSJFvTlivIibW-34" value="&lt;font style=&quot;font-size: 14px;&quot;&gt;Terraform Apply&lt;/font&gt;" style="text;html=1;align=left;verticalAlign=middle;resizable=0;points=[];autosize=1;strokeColor=none;fillColor=none;fontSize=14;fontStyle=1" parent="KQ8KpgigSJFvTlivIibW-31" vertex="1">
          <mxGeometry x="53.5" y="15" width="120" height="30" as="geometry" />
        </mxCell>
        <mxCell id="KQ8KpgigSJFvTlivIibW-61" value="" style="endArrow=classic;html=1;rounded=0;exitX=0.5;exitY=1;exitDx=0;exitDy=0;entryX=0.5;entryY=0;entryDx=0;entryDy=0;fontSize=14;" parent="KQ8KpgigSJFvTlivIibW-60" source="KQ8KpgigSJFvTlivIibW-24" target="KQ8KpgigSJFvTlivIibW-28" edge="1">
          <mxGeometry width="50" height="50" relative="1" as="geometry">
            <mxPoint x="620" y="25" as="sourcePoint" />
            <mxPoint x="670" y="-25" as="targetPoint" />
          </mxGeometry>
        </mxCell>
        <mxCell id="KQ8KpgigSJFvTlivIibW-65" value="" style="endArrow=classic;html=1;rounded=0;exitX=0.5;exitY=1;exitDx=0;exitDy=0;entryX=0.5;entryY=0;entryDx=0;entryDy=0;dashed=1;dashPattern=1 2;fontSize=14;" parent="KQ8KpgigSJFvTlivIibW-60" source="KQ8KpgigSJFvTlivIibW-28" target="KQ8KpgigSJFvTlivIibW-32" edge="1">
          <mxGeometry width="50" height="50" relative="1" as="geometry">
            <mxPoint x="470" y="25" as="sourcePoint" />
            <mxPoint x="520" y="-25" as="targetPoint" />
          </mxGeometry>
        </mxCell>
        <mxCell id="KQ8KpgigSJFvTlivIibW-73" value="" style="shape=image;verticalLabelPosition=bottom;labelBackgroundColor=default;verticalAlign=top;aspect=fixed;imageAspect=0;image=data:image/png,iVBORw0KGgoAAAANSUhEUgAACEUAAAGxCAYAAACOOprXAAAACXBIWXMAAEJvAABCbwFRKOG9AAAgAElEQVR4nOzd3XEbRxou4Le39p46EYgbgbQRCFsTgHUiEByBufeoElyFe9MRGIrAVABTgiJYKgJDERwpgjkXM1zTWv1QJIAeDJ6niiXJFmc+DfEz6H7769J1XQAAAAAAAAAApuZvtQsAAAAAAAAAANgHoQgAAAAAAAAAYJKEIgAAAAAAAACASRKKAAAAAAAAAAAmSSgCAAAAAAAAAJgkoQgAAAAAAAAAYJKEIgAAAAAAAACASRKKAAAAAAAAAAAmSSgCAAAAAAAAAJgkoQgAAAAAAAAAYJKEIgAAAAAAAACASRKKAAAAAAAAAAAmSSgCAAAAAAAAAJgkoQgAAAAAAAAAYJKEIgAAAAAAAACASRKKAAAAAAAAAAAmSSgCAAAAAAAAAJikv9cu4HstmvY8yfmt/zS747fe9e8BjN2HJNf3+HvXq7b5sJ+SAAAAAAAAYHxK13W1a/isRdPOkjwdvs6HX88qlgQwFe+TbJNsbn5dtc22XjkAAAAAAACwH6MJRSya9lGS58PXD5XLATg179OHJK5WbXNVuRYAAAAAAADYieqhiGE7jGX6MIROEAD1vU+yTnJpuw0AAAAAAACOWbVQxNAZ4jLJiyoFAPAtH9MHI5a1CwEAAAAAAID7qBKKWDTtRfruEDpDAIzf+yTzVdtsahcCAAAAAAAA3+OgoYhhq4x1kmcHOykAu/Lrqm0uahcBAAAAAAAAd3WwUMSiaWdJrqI7BMAxe5fk+apttrULAQAAAAAAgG/52yFOsmjaeZI3EYgAOHZPklwvmvZp7UIAAAAAAADgW/Yeilg07TLJb/s+DwAHc5ZkIxgBAAAAAADA2O01FDEEIl7u8xwAVCEYAQAAAAAAwOiVruv2cuBhywwdIgCm7WOS2aptrmsXAgAAAAAAAJ/aSyhi0bSzJG92fmAAxuhjkvNV23yoXQgAAAAAAADctvPtMxZNe57katfHBWC0zuJ1HwAAAAAAgBHaeSgiyTr9BBkAp+PZommXtYsAAAAAAACA23a6fcaiaS+S/LKzAwJwbP65apvr2kUAAAAAAABAssNOEcO2GctdHQ+Ao3RZuwAAAAAAAAC4sbNOEYumXSd5sZODfdnHJNdJtsNXPvn9Z63aZrO/kgAObwiinX/jr81u/f5pkkdJnu2nor/4cdU26wOcBwAAAAAAAL5qJ6GIYXLujwcf6PNeJ7lKslm1zXZP5wA4GYumfZo+MHGR5PEeTvF+1TbnezguAAAAAAAAfJddhSLW2X2XiHdJLnR5ANifRdPO0295cbbjQ+sWAQAAAAAAQHUPDkUsmvZRkv+3m3L+6+dV2yx3fEwAPmN4Hb/KbrfWeLtqm9kOjwcAAAAAAADf7W87OMbzHRzjth8FIgAOZ9U2H4YAw6sdHvbZsLUSAAAAAAAAVDO2UIR26wCVrNpmnt0GI3YdmgMAAAAAAIDvsotQxA87OEbSb5mx3tGxALiHIRjxbkeHm+3oOAAAAAAAAHAvDwpFLJp2tqM63tkyA2A0nif5uIPjzHZwDAAAAAAAALi3h3aKeLqTKpL5jo4DwAOt2mab5HIHhzpbNO2u3icAAAAAAADgu40hFPF61TbXOzgOALtzmd10izjfwTEAAAAAAADgXh4aijjfQQ3rHRwDgB1atc2HJFc7OJROEQAAAAAAAFQzhk4Rmx0cA4Dd2+zgGOc7OAYAAAAAAADcy0NDEWcP/P73w2pkAMZnF1sbne/gGAAAAAAAAHAv9w5FLJp2F10itjs4BgB7sGqbXYQiHu3gGAAAAAAAAHAvD+kUsYuJru0OjgHA/nx84Pc/2UkVAAAAAAAAcA8P3T7jobaVzw/A1+2iWwQAAAAAAABUUbtTBAAAAAAAAADAXjwkFPF0B+e3Ahlg3D489ACLpt3F+wUAAAAAAAB8t9rbZzx4sg2AvdpFeE1nIQAAAAAAAKqoHYoAAAAAAAAAANgLoQgAAAAAAAAAYJKEIgAAAAAAAACASRKKAAAAAAAAAAAmSSgCAAAAAAAAAJikh4Qizndw/usdHAMAAAAAAAAA4H9UDUWs2ubDQ48BAAAAAAAAAPA5ts8AAAAAAAAAACZJKAKAr9nFNkePdnAMAAAAAAAA+G5CEQB8zS62OXq6g2MAAAAAAADAdxOKAAAAAAAAAAAmSSgCAAAAAAAAAJgkoQgAAAAAAAAAYJKEIgAAAAAAAACASRKKAAAAAAAAAAAmSSgCAAAAAAAAAJgkoQgAAAAAAAAAYJKEIgAAAAAAAACASRKKAAAAAAAAAAAmSSgCAAAAAAAAAJgkoQgAAAAAAAAAYJKEIgAAAAAAAACASRKKAAAAAAAAAAAmSSgCAAAAAAAAAJgkoQgAAAAAAAAAYJKEIgAAAAAAAACASRKKAAAAAAAAAAAmSSgCAAAAAAAAAJgkoQgAAAAAAAAAYJKEIgAAAAAAAACASRKKAAAAAAAAAAAmSSgCAAAAAAAAAJgkoQgAAAAAAAAAYJKEIgAAAAAAAACASRKKAAAAAAAAAAAmSSgCAAAAAAAAAJgkoQgAAAAAAAAAYJKEIgAAAAAAAACASRKKAAAAAAAAAAAmSSgCAAAAAAAAAJgkoQgAAAAAAAAAYJKEIgAAAAAAAACASRKKOEKLpn2+aNpHtesAAAAAAAAAgDETijhOF0muF007r10IAAAAAAAAAIyVUMTxepzkt0XTbhZNO6tdDAAAAAAAAACMjVDE8XuW5M2iade21AAAAAAAAACAPwlFTMeLJNtF0y5rFwIAAAAAAAAAYyAUMS1nSV4umna7aNrntYsBAAAAAAAAgJqEIqbpcZLfF027WTTtee1iAAAAAAAAAKAGoYhpe5bkj0XTXi6a9lHtYgAAAAAAAADgkIQiTsNPSbaLpp3XLgQAAAAAAAAADkUo4nScJflt0bTXi6ad1S4GAAAAAAAAAPZNKOL0PEnyZtG0V4umPa9dDAAAAAAAAADsi1DE6fohyfWiaZeLpn1UuxgAAAAAAAAA2DWhiNN2luRl+nDEvHItAAAAAAAAALBTQhEkyeMkvy2adrNo2qe1iwEAAAAAAACAXRCK4LZnSf6zaNq1LTUAAAAAAAAAOHZCEXzOiyTbRdMuaxcCAAAAAAAAAPclFMGXnCV5uWja7aJpZ7WLAQAAAAAAAIDvJRTBtzxO8mbRtJtF057XLgYAAAAAAAAA7koogrt6luSPRdNeLpr2Ue1iAAAAAAAAAOBbhCL4Xj8l2S6adl67EAAAAAAAAAD4GqEI7uMsyW+Lpr1eNO2sdjEAAAAAAAAA8DlCETzEkyRvFk17tWja89rFAAAAAAAAAMBtQhHswg9JrhdNu1w07aPaxQAAAAAAAABAIhTB7pwleZk+HPG8djEAAAAAAAAAIBTBrj1O8vuiaTeLpn1auxgAAAAAAAAATpdQBPvyLMl/Fk27tqUGAAAAAAAAADUIRbBvL5JsF017UbsQAAAAAAAAAE6LUASHcJbkl0XTbhdNO6tdDAAAAAAAAACnQSiCQ3qc5M2iaTeLpj2vXQwAAAAAAAAA0yYUQQ3PkvyxaNrlomkf1S4GAAAAAAAAgGkSiqCml0m2i6ad1y4EAAAAAAAAgOkRiqC2syS/LZr2etG0s9rFAAAAAAAAADAdQhGMxZMkbxZNu1407XntYgAAAAAAAAA4fkIRjM2LJNeLpl0umvZR7WIAAAAAAAAAOF5CEYzRWZKX6cMRz2sXAwAAAAAAAMBxEopgzB4n+X3RtJtF0z6tXQwAAAAAAAAAx+XvtQuAO3iW5D+Lpn2V5GLVNh9qFwQAAAAAAPtWSnma5PZW04+S1FhEuOm6blPhvADwYEIRHJMXSZ4vmna+apur2sUAAAAAAMBDlVLO0wcdniaZpQ8+PKlX0RdtahcAAPchFMGxOUt/YygUAQDwDcPA2vmt//TpCqPP2Q5fN667rtOpCwAAYEdKKY+SPE8fgHieftwbANgToQgAADhipZRZ+uDDef4MPTzb8Tlufvt2+HWT5EOS6whNAAAA3Ekp5XmSeZIfKpcCACdFKAIAAI7EsJfsLH+2VT10O9Vnn/yaJCmlvE/fXWIzfAlKAAAADEop8yTLJI/rVgIAp0kogklZNO2jVdsYgOd/eGzA7g0f6M8rlrDpum5T8fyjN2ydMK9bRdZd120r13C0hp/hTUvVWcbbUvXx8PUsycskKaW8yxCS6LrO1mdfMJLn6Zhs8+f2LR+6rruuVwrf4vHLd3JPAMDJGTr7rSMMAQBVCUUwNdtF0y5XbXNZuxDGYdG0j5Jc5M/JJGB35tlxi/572FQ+/9idZ5igrmiTPyc4uYOhG8Q8fRjimAfOngxfPw3bb7xOcpXkSheJvzhP/efpaN3auuVd/tyy5UOG1xYTrNWdx+OXu9vEPQEAJ6KU8ijJZZIXtWsBAIQimJ6zJL8smvYiyXzVNpvK9VDRomnn6T98nOXPPdABYHRurbae57iDEF/zw/D1WylFQILvdbNVzE0Y76YjSdLf510PXxtBCQAAahqC7uscfrtDAOALhCKYqsdJ3iya9nWSi1XbbCvXwwEtmnaWPgzhgwcAozZsQzNP/a4rh3YTkLgspVylb6m+qVsSR+xZbj2HSinvM2zdEiEJAAAOaAhEbDLerQ8B4CQJRTB1PyT5YdG0Pye5XLWNlYgTtmja8yTLaEsHwIgNbVQvMu2uEHd1lv59+0Up5V2Sy67r1nVLYgIeZ3hcJcnw2LrpTHJdszAAAKZLIAIAxutvtQuAA3mZ5HrYToGJWTTto0XTLtO3TBaIAGCUSinnpZRl+v3UX0Yg4lNP0m+tsS2lLIfwCOzCk/TPuf8Mj6+LYcsaAADYieH+chOBCAAYJaEITsnjJL8tmnYzbK/ABCya9nn6MMTL+NABwAiVUh4NYQjvV3fzOP11Eo5gHx4n+SXJH6WUq1LK89oFAQAwCVfxWQ8ARksoglP0LMmbRdOuF01rkP1ILZr26aJpN0l+j5W2AIzQrTDENsIQ93GWodtXKWVeuRam6Yckvw/dI+a1iwEA4DgNn/ue1K4DAPgyoQhO2Ysk22HbBY7EsFXGOsl/0gdcAGB0htXnOkPsxuP022pcl1JmtYthkm4eY8IRAAB8l2HbjJeVywAAvkEoglN3luTlomm3wzYMjNiiaS/Sr7Z9UbkUAPisUsp5KWUTnYz24UmSN6WUtS012BPhCAAAvteydgEAwLcJRUDvcZLfF027WTTtee1i+KtF084WTbtNv/+z1bYAjFIp5SJ9dwidjPbrRZLt0I0D9uEmHLEppTytXQwAAOM0dImweAsAjoBQBPzVsyR/LJr2ctG0ViBWtmja80XTbpK8idW2AIzUre4QwnuHc5bk91LKla4R7NGzJP8ppVx6nAEA8BnL2gUAAHcjFAGf91OS7bBdAwe2aNpHi6ZdJvkjVtsCMGJDtwLdIer5Icl1KWVWuxAm7af0jzNdIwAAuE33OgA4EkIR8GVnSX5ZNO31omlntYs5FYumnSfZJnlZtxIA+LpSymWS36M7RG2Pk7wZti+BfXmcvmvEsnYhAADUV0qZx2dBADgaf69dAByBJ0neLJr2dZKLVdtsK9czSUPwZBkrbQEYuaGN/ib9PQLj8cvQMWLedd2H2sUwWS+HjhEeZwAAp21WuwAA4O50ioC7+yHJH4umXS6a1p7CO7Jo2vNF066TvIlABAAjN0yGbiMQMVY/JNkMwRXYl5vH2XnlOgAAqMfWGQBwRIQi4Pu9THI9bPPAAyyadpl+H/YXlUsBgG8a2qNuokXq2D1Jsh0CLLAvT5Jce5wBAJye4R7Q50IAOCK2z4D7eZzktyEYsVy1zaZuOcdl0bTPk1ymv44AMHpDIOK32nVwZ2fpV/LPuq67rl0Mk+VxBgBwmgRjAeDI6BQBD/MsyZtF065tqfFti6Z9umjaTZLfIxABwJEopVxEIOIY/XfCunYhTNrN48zAOADA6XDvBwBHRigCduNFku2wHQSfWDTto0XTXib5T/ogCQAchVLKOskvtevg3s6SvCml2O+XfRKMAAA4Le77AODI2D4DducsycthS42LVdtcVa5nFBZNe5FkGfvsAXBkhkDEi9p1sBNrWxywZzfBiPOu6z7ULgYAgL06r13AZ7xPst3zOfZ9fADYG6EI2L3HSX5fNO3bJPNV22wr11PFomlnSdaxTQYAR2jYMkMgYjr+u5WGYAR7dPtxJhgBADBdYxnvfJ/kMslV13XbyrUAwKgJRcD+PEvyx6Jpf02yXLXNSQyMLpr2PP3N+A+VSwGAeymlzGPLjCkSjOAQnqS/F55XrgMAgGl7nWQujAsAd/O32gXACfgpyXbYVmOyFk37aNG0yyR/RCACgCM1BCJ+q10He3OWfiuNR7ULYdJeDK8lAABMTCllVruGJG+7rnsuEAEAdycUAYdxluS3RdNeD9tKTMoQ+NgmeVm3EgC4v1LK0/QrvJm2J0muahfB5F2WUs5rFwEAwCTNaxcAAMdGKAIO60mSN4umvRq2mThqi6adLZp2k35F7VnlcgDg3obOAZt4PzsVz0opAjDs01mSde0iAACYnFdd121rFwEAx+bvtQuAE/VDktmiaS+TXK7a5qhanQ2BjmWSF3UrAYCHm3Ag4l2S6/TdnDbDf7v+VovVYXX7+fDHWZJHSZ4mebbzCuv6qZSy6bpO1wj25Vkp5aLrOgEcAAB2xecXALgHoQio5yz9dhPzRdMuV22zrlzPnSyadpnkItObOALgdF2m7+Z07N6lHyDbdF23ue9BhlVH2+GPfznOsMXI0yTP0wcmjv1+YF1KeWqlVX6ucM7z/Bm+ufE0x/+Y+tSylLKe8H7PH5K8rV3EHtR+LH5MH2qbmqk+DwDgkDa1CwCAYyQUAfU9TvLbomnnSS5WbTPKwa9F0z5PP2n0uHYtALArpZR5jrvz0bv0789Xh5h07bruOv1E3TpJSinP0wcknuc4J7NvtjiY1S2jrq7rlrVruO1Wt5LZ8OvTHG9w6Sz9c3ReuY69GF4TZrXr2LVSyiZ1u+Ncd103q3h+AGCkJhy2BYC9EoqA8XiW5D+Lpn2VPhwxihvcRdM+TT+QO7WW2QCcuGHi9Rjb2n9M3xFiWbvDwbD1xFXy34DJRY5v8toWByNzq1vJ5ua/DdvczHKcIZwXpZTqz1cAAI7eFDt0AcBB/K12AcD/eJFkO2xTUc2iaR8tmvYyyX8iEAHANF3luCZWP6bf5uC867r52CZYu65bd133NMm/cnyDdcshJMNIdV33oeu6q+Gx/yjJ/03yqnZd32FZuwAAAACAUyUUAeN0luTlomm3i6adHfrki6a9SL8676dDnxsADqGUssxxdTT4NX0YYjn2dqld122Gtu//SvK+cjl3dbONBkfiJiCR5B85jnDEC8EbAAAAgDqEImDcHid5s2jazaJpz/d9skXTzhZNe53klxzXylkAuLNSytMkL2vXcUdvk/yz67qLsYchPjWEI87Td7c4Bs9KKc9rF8H36bpueysc8bpyOd9yUbsAAAAAgFMkFAHH4VmSPxZNe7lo2ke7Pviiac8XTXuV5E2Oa9UsANzHunYBd/TvrutmXddd1y7kIbquWyb5Z5J3lUu5i8tSys7vtdi/IRzxPH2Hko+16/mCuccXAAAAwOEJRRynZY6nFTG79VOS7aJp57s42KJpHy2adpnkjyQ/7OKYADBmpZSLjD8A+C59d4jL2oXsStd1113XPc34tzl4HKv5j1rXdZsk5+m7rIzNWRLdSAAAAAAOTCjiCK3aZrNqm/Mk/854V0GxP2dJfls07fWiaWf3PcgQrLjO8bQPB4AHGVZoL2vX8Q2vkxx9d4gvGbY5+LF2Hd9wYTX/ceu67kPXdbOMM4Qzr10AAAAAwKkRijhiq7a5TL8KaoyDfezfkyRvFk17tWja87t+06JpZ4um3ST5Lf1qSAA4FZfpw4Vj9arruudd132oXcg+dV23TvJ/M95w71l0i5iEIYQzts9Kz0op57WLAAAAADglQhFHbtU2H1ZtM0+/T/MYW8Syfz8kuV407XLRtF9c1ThslbFO8ibJs0MVBwBjUEp5muRF7Tq+4sdhAvckdF13lWSW8QYjdIuYiOF59bp2HZ+whQYAAADAAQlFTMSqba5XbTNLv+rufeVyOLyz9NtgfG1V41XGPRkEAPt0WbuAr/hx6J5wUoYtQma16/gC3SKmZZ7kXe0ibpnVLgAAAADglAhFTMyqba6SPE3yc8a78g4A4GBKKbOMt0vSSQYibgzBiB9r1/EFukVMxLAlzbx2Hbf8ULsAAAAAgFMiFDFBw5Yay/ThiLHtoQsAcGjL2gV8watTDkTcGK7Bv2vX8RlnGddEOg8wBHB+rl3HjSGsBQAAAMABCEVM2Kpttqu2mSf5V8bVLhYA4CBG3CXiVdd189pFjEXXdZdJXteu4zNsoTEtlxlPN71Z7QIAAAAAToVQxAlYtc1m1TZP07cmHssgIADAISxrF/AZ72Ky/XPmSd7XLuITj63on45hG42xPPdmtQsAAAAAOBV/r10Ah7Nqm/Wiaa/SDwS+rF0PAMA+jbRLxMckz4fJWW7puu5DKeV5kv/UruUT8ySbyjWwO1fpO0acVa7jaeXzA1/wSRhu9oW/dtt1kpv39Wvv8cA+lVLOk5wPf7z9+6/Z3Pym67rNl/8akCSllEf583799u+/xv0AVPTJ8/Zp+ufu12yGX7dd1233VNao3bqnuMvr3Gb49aivl1DEiVm1zYcky0XTrpOsM76JAgCAXZnXLuAzLo75w8O+dV13XUr5OeMK8L4opVwY1JqGIXxzleRF5VLOSinnXg+gniH8MMufk4o7GR8ppSR9V6gP6QcPr9MPHl7v4vjAaSilPE0/QXHzdZ7k8T0P99976+E16mOG16bh12thCU7RMCH46fPsyY6Onfz1fmCb/rnmfgAeaHjuzvLnc/c+9/Gfvje+S/883WSC74vDfcUsf16z732tm8T1Eoo4Uau22SaZLZp2lj4ccd+bagCA0Rk+INWe9PzU667r1rWLOAKX6QMtY7o/fZ7+nplpuMw4Xh/O0w8iAAcwdCOaDV87mfD4ipvj/3eAtpTyMf2g4SbJxqQIcNutoNYs+1/Edjac41mGe6JbExyb9K9RV3uuAQ7u1qTgzde+u8d96X7gOv1z7cr9ANzN8Pydpx+f2cd40ZPh64fhfDf37lfpn6tHt1Bmz9fsKK+XUMSJW7XNJsn5omkv0u+5XbuNLADALsxrF/CJjxlfTaM0rOS/SPJ77VpuEYqYkKEjycfU/+wzi61ZYG+GFrrPh68fKpeT9K85P+SvA4c3g4YnM/lYStkc+pxd180OcZ5h4Pmm/fDtls13aeGcJOv7BGiH815+7/c91BFd14uxTjoOYa2br9r3JcmfExw/3Z7cOOZg955ec+7yuNuXpxVeR0f7HLqLW8+zWcYRvL8dSnp5qvcDSbX3r+uu6y4OcaJb71+zT/7Xp3/+kns990op89Qbf7rXvcyXDPfz8yQXOfzz9/a9+2+llFfp/32bA9fxXSpes9vX63Lo0Hk5tvcPoQiSJKu2uRy21BjLqikAgIeY1y7gE7Zf+A5d112VUt5mPFu9/VBKeeRnOClj2EKj5oA6TNYw+THPOIIQX3OW/nXoxa0JkdEPtO7AWN7bH+xW95H7tm3+1Oae3/doR+evbhjIn2W3XV1G9X47TJJdZDxBiC/57+RGKeUy/WvU6CY37mASz41bbibUD2lUz6G7OKLnWfL5+4FTCUhM7f3r9n1Bzfev89S7rptdHGS4nhfD11iewzfP07dJlmO7Zx/ZNbv9ujaq6/W32gUwHqu2+bBqm3mSfyZ5W7caAID7GQaox7AC5MbbY15dVdGydgGfeF67AHZqDAP6T2sXAFNRSnlUSrkopWzTdxoaeyDiUzcDh29KKdtSynwY2GRkSinPSynrUkqX/rH2UyYyoVPT8Ji/SvL/8ud13fc2Nwc1/Bs3Sf6T/vlee8Lie9y8Rv2nlLIZtvqAURnuBebDvcAxPs+SP59rvw/3AxfuB8br1mPu5v3rt/Q/v0m9fx3a0Dl0m+Rlxvkcfpb+nn0zBLCqG8ZBrzPOa3b7ep1XrkUogv+1apvrVdvMkvzfJO8rlwMA8L3mtQv4xLJ2AcdoSJGPKag7q10AOzWGUATwQMNg9DL9wOkvGVco8r4epx9U35ZSliZDxuHWRNvvqd9paBJunr/Ddf0txxdmupNbj53fMo0Aze3JjVntYuCTe4HfMo17gaT/d/yS/n5gPYbJRHqfecxN8v3r0Eop50N48JeMb2L/c56lDwsefAuzG8NjcZP+/nTsr33PkvwxPHeqEYrgi1Ztc5V+9dLP6ffBBgAYtWHiYEwfSF+NpUXckVrWLuCWWe0C2J2RPC9HsaoEjtEng9FjXBG1C2fp/23CERUNnSG2mdZEW3XDfufb9I/xSV7XUsps4o+d0a2U5bScyL1A8mf3iD+EI+o7kcfcwQ33Bdc5zvDgT6WU60O/Fw7BxG2O75q9HK7XeY2TC0XwVcOWGsv0A3avK5cDAPAtY9viYFm7gGM2sm4Rjw34Tk7t4LdBNLiHW4OmpzIYfTscMa9cy8kYJtuuchwr747GrVWgv2Wiz99b/8Y3OY3Hzn9XygpvcSgnPDH9Ism1sOThlVKellJO6f7zYIZOC8d+X/AkycE6KA2fCd7keK/Zk/SvZQcfYxOK4E5WbbNdtc3zJP9K8q52PQAAXzCmUMSrruu2tYuYgHXtAm6Z1S6AnbKFBhyRTyZTT2Gi8VNnSX6rsRLt1AzXd5txdR87erf2uz62FY13NuyDPul/41f8lEoTHJyOWx1YTnli+nZYckzjH5M1TED/J/1ELjtUSlmnf/+YgrP0HZTm+zzJcM1+2+c5DuQsfahyfsiTCkXwXVZts1m1zdMkP6b+yioAgP8a4dYZ1fYVnJKu60hHeCkAACAASURBVNZJ3lc6/bskvyb5v0n+0XWdnylABcNE4x85zYnGTz1JP4C4rF3IFN2a+DjVyba9GK7r75nodb21p/ex7IO+L4/j9Yk9uNW951Q6sNzFWZLfhy1szivXMlkTmoAeneHavqhdxx78tq+J/oles71dr88RiuBeVm2zTnKefpAYAGAMxrRK4m3XdVah787Vgc5zOwTxf7que9p13UXXdVe6fgAc3icTjfzVzX68VmXvyDAga+Jjx261xZ6kW51FhLb+9LKUcqW9P7swdEPYZlwLIMbkWfouLfPahUzNRCeg9+1O42AncG1/23Unl4lfs51fry8RiuDeVm3zYdU2F0n+kfHs9QwAnK5Z7QJuWdcuYGL21aHhbZKf028R92kI4sOezsl4CC7BiA178m5jovFrbvYvntcu5NgJROzHcF2n0hb7f+gs8lU/pH99Eozg3oZQ1WS7zOzQzRZbwkg7MvEJ6H365jjKCV3b9a7Cy8P9xtSv2c6u19cIRfBgq7bZrtpmln4wuVZrYwCAsXSK+Dhs+cCODF0a3u3gUP8NQXRdV7qum3Vdt+y6biMEcZL8zGGkhu0y3sQkyF3cTISsaxdyrIYAjkDE9/nm+N/UgybDFhGT/fftyJMkWx1t+F6llPNSynUmHKrak5swkufcAwz3oVOfgK7iRCb3b5yln+h/UFDphO5Tz5LsPdglFMHOrNpms2qb8/QDzR8rlwMAnJDhQ/9YJk7WtQuYqPV3/v2PSV4n+Xc+E4LYdXEcpfPaBQD/a5jct13G93sx7Ctuheh3GK7XobbpmpLt1/7ncG++r05f1Q2vUy9r13EkzmKSlu8wPFau04dq+H43XaTGsmjkqAwT0O5D92Dq9wZf8CQP+Def4H3q4+x5TFUogp1btc0y/QDjq7qVAAAnZEwf+Ne1C5iozTf+/+0QxD+7rnvUdd3zrusuhSD4gvPaBQB/KqU8KqVc5XRWj+3Ds2hX/6lvLdq5yniCtZMwPP7Wmeh1PaG237skGMGd2JJmZ86S/G57re9zghPQ+/C1bozrnOZz+8UQtrmPU7xP/WGfoS6hCPZi1TYfVm0zT/LP9G2KAQD2aVa7gMH7ruuuaxcxRcN1vd2q+X36EO6P+d8QhJ8BwBEZBqE36ds+8zA3K0QFI3pfvCcY2mM/O2Atp2KZia7wHrbMEIi4n520EWe6pr7lTiW/lVJObWX+t2y+8v/WOb0J6J360ljM8P45yXuDO1p/7zec+H3q3u4XhCLYq1XbXK/aZpZ+sPqb+w0CANzTWD4oWFWwX8v095X/6LruvOu6edd1ayEIgON1KxBxygOluyYY8Q2llPP09xXcz2dXgg6dAH46cC0HMUzY2jLjYZ7k293fOEECEXv109Dhhq8YVvIL5+7BcM916u+fj4dgyJ0M9/B3/vsTdJY9/fuFIjiIVduskzxN8nO+3boQAODORtaGdV27gCkbAhDrruu2tWthEsYSpoJTt4lAxD4IRvS+1MZ5GatBH+JLgdRJrkgePm+YsN2NJyZouU0g4iBeeN5907p2ARPwpY7x60MWMWIX33Fffhn3qT8NgZqdEorgYIYtNZbpwxGvK5cDAEzHrHYBg486FsBxGMkkoU56nLxhgF4gYn8EIz4zeT+sBrUFwo4N13VygUN7zO/Fi33uF87xEIg4KMGI3ubT/zA8Dh8fvJITMNV7g3s6S3Lxrb80BAHcp/aWuz6gUAQHt2qb7aptnif5V5J3tesBAI7eWDpFGCyF4zGG141t7QKgpmFg3oDf/j2JFXqfWtYuYAI+FwReH7qIA1nHZNk+rPexApTjIRBRxYvhuvNXk+xyVMHmM/9teeAaxu6boYhM937qPl7s+l5BKIJqVm2zWbXN0/T7QttSAwC4rzFMbib2x4VjMpbXDThJw4C8QMTh/FBKOdUB/83tPwzbIFix+HB/2ZZkWAk6ueDA0M3AHvP7cRYTkSfLljRV/XbiwYi/hPqGa3Hq2xTsyufuDdxz/dXZ155/7lM/6y5BkjsTiqC6Vdusk5wn+bVuJQDAkRpL2+1N7QKAO5vVLiBeMzhRJkKq+Um7+iQ7Hlg9YZ92iljWKGKfhm0z1rXrmLgfvC6dnmHV76ZuFSfvcrgfOzld13345D8ta9QxUZO/N9iR+Vf+n/vU/zXf5cH+vsuDwX2t2uZDkotF016m/8AhDQUAfNOQPB+Dj13XbWsXAdzZrHYB+WQlDZyCYZLRdlP1rEspT0/pnqXrus3N74fHnw4lO3B7UmmY4JziON5lxrt6+H36bbg2w58/5M/JqKdJHg2/n6VfiDbmLh6X8b5wMm7dB4z1uXUqzpJcDfcEp/SZ5O3tPwyhrDG/Ph6b/4YidDz4qmellPNP78eH+yn3qf/rrJTyvOu6ndwrCEUwKqu22SaZLZp2Fnv2AQDf9ujbf+UgPrevMjBCw+DXGAZivW5witY5zs/57/K/QaZjHOg9Sz8ZdSqrQ99/8ud5jSIm6O0nf57cqsZhMmdsExOv0z9/N98INm0+/Q/DRMssyRi3A3lcSll2XbesXQgHcZnxdHo8dY/T35edUreWT+/l5jWKmKj3nwRsJndvsGPP879bSM0r1HEs5tlRgFIoglFatc0myfmiaZfpX0DHMGgJAIzPWAb1N7ULAO5sLAN/QhGclCGQNLbJuE+9T/+evkmyvd1l4EuGydPz9Pcks4w/LPHkhCYgt5/82QD9bmw/+fO8Qg379ulERS0f09dy+ZDV3EOIYp2+W8x5+p/ZmMZbL0opD/o3Mn7DfcDYwkan7odSykXXdWN5zdu3250MHmX896XHZHvzm+Ha7uMz98f0P8Pb3ZFunN/6OoYA9udCEfu4T/3aNXuU/vPLecZ/zXb2XBWKYNRWbbMcttS4jJsmAP5qPqKtE8ZqLF0U9mksoQiTm3AERtQ6/dOVNDBpw3NvXbuOL/iYYbKw67rvfj8fvuc6t1YvDRM/Y578eVlKWZ/ANhqbm98M4ZWxD/gei+3Nb0bUfWlnhs+YYwg3/ZwHhiE+Z3jeL0spN1sYj2FS8Cz9ZNCych3sycjvA77mXfr3+O2tr0+df/I1hteP77EspWzucw90hG7/G+e1ipioza3f7+re4ONw3Lt0SfqvW6GMMQeyn5VSHt28x+/4fuqunaX+a7hms/x53UZ3b7erLTSEIhi9Vdt8SDJfNO06bo4B+NPjGNhkPMGPbe0CgDsZyyrhUxh0hNvWGd/g2vsky67r1rs+8DBgd1VKuUj/ujOmFdk31ukHP6dse+v380o1TNHm1u/H0n1pl+aVz/8+yfN9T1AOEzHPSynz9IvRar9GzWPcd8rWqf8Yu4uP6ScTbyYU7xVKGsJVN5OLYx+3Okv/8xnLgpN92t76/bxSDVN1+7ny0HuD9+nfD67u8xwcvmedvjvSo4z3XnyWP0PVY7hmN59fxnrNZtnBFhpCERyNYUuN2aJpzyuXAgCMxyg+uJ/Iqgo4arc+3I/BpnYBcCjDxMCYVml9TL/6ernvEw0DjDcrsi+SvNz3Ob/Ds1LKfB+hkBHZ3vr9FCfva7l93zup6zpsLVGzw8u7JLNDdpPqum5dSrlOf29Sc/Lj8Z5ek37e8fGSvhtAzcfJqxw2lP+gcx3J9llv098b7GTP+mH7rU36rWGepr8HGGv3qKTfWmvy22jcjNsMnwufVC5nan4ZwsCb3P/5/j7Jxa6eh8lf7sXX6YMSY+rkcjlcs+T+de085P3J55dlkp92dewHmu3iIEIRHJ1V22xr1wAAjMYYUsvvahcA3Mky43jNSIQiOC3r2gXc8jbJ/NDbRtwaXLxKfz3GMhC/zLh+Pjs1TErdTHSPfaXu0dhTq+exmFc899v0HSIOvr1W13XXQ4Btk7o/03l2/Jq0jwDccK1qTnCvb17fxm6YfB7zRPve7wuGifh5KWWZ/n13rOGI5bC11lS3+Ht76/eTCvSNyOPc//H98z4Dy8NzfDY8D8cSUn5oB+R9X7MP6YNd10l+29d5vsOT21uO3NffdlUNAAAc0jDAPQZTHTSAyRgGr8eywuGj7jKciqEt+1gmo3/tum526EDEbcNzf5Z+le8YPB4GhyeplNKVUjYZ94Tc0bl1XcfSfWmX5pXO+y6VAhE3biZua51/8GxEn/HYjYuM5z7gtvdJ/nXI+4Ku67Zd182T/CN/naAfi7NM+/3yWSnlwxBQneL717F6l+Sfh+jglvw3KPfjIc61R+9z2Gu2TvLPQ5zrDh7cLVgoAgCAY3Veu4CByU0YsWGF2rp2HbdsahcAhzCy1aE/dl03igHwrus+DJMi/65dy+Bi+FlN1bOMv237MXqWcbWgfrCh80WNyduPqRyIuDG0LP+1chlWcE/EEHAZy4rs235N8rRWt40hHDHLeO4DbnsxbPcxVWfp7wnG0rHr1L1Nv2XUQcfUhkn+2u919/Uu/evXoa/ZdcYRJpk99ABCEUzNGFOWjIMJKwD2pfoAJvBVm4xrhdrO9kiFkbvIOFrr/7iHPeofbNi3ewyDi2exYhKSHe1VfQ8H39LnG5bpV6HWMq94bnZrWbuAT3zMEJIcSQjpMv3q64+1a/nEWAKtTNuroVNLlefiEJY+tq1w36UPkdS6ZuvUD5PoFAG3rdpmln5QYWw3E9TzLsm/Vm1jkAdgesaygmFbuwDg80op64xvJZBQBKdiDJ/BRhmIuDHU9nPtOmISEpI6HQreDt0ZRmOYbFlWLOHJxLvXnIShS8SLymXc9jH9ZOK6diG3DauvzzOuydlnw9aDsC+vhq5ptc1rF/AdqgYiblmmbnDy/KEHEIpgclZts07/5BjDwAL1fEzy46ptnq7aZlO7GAD2YiyDZdvaBQB/VUp5NAQixjQYmySvRzCQAXtXSpmnfpeIf49t8uNzhv2AX1Uu4/HwM+Pu3qX/uf07yb/S7+1cHvi1rPovGod36Vch3lzXf+zgum6+ddKhXXyNrlJjCI/9j+G1s+aCs1nFc7Mby9oF3HITiBhlF+Hhs8Es4wpGLGsXcITepn//+jEHfP86Qu8ykve+4TWh9j34XbzPOAIRowhOPvQAf99FFTA2q7b5kGS5aNp1+pZP9o88Lb8mWQ6PAwAATsiwMu0q4+sQkSTr2gXAgSwrn//10Jb6WFyknxCpudXPRbxGfcvr9O8vV2MYmJ6QV+mv66bidZ1VOOfrsU7SDtZJfqp07ll01jpaI+sSMepAxI2u6z4M3Rk2GcdnmGellKdjv26Vfcyf9wRer+7m5vk4pnuoZcbzevU5H5M8H9M167puXUpZptLnllLK+UO2HdMpgklbtc121TbP06fzarZ14TDeJvnHqm0uBCIAAE5PKeV5kuuMYzDxU+8NmHEKhkH9mpP7H3Nc7XBvVl3NK5fxZFgtz199TN+J9B9d1z3vum49poHpI3ZzXf9P13XzrutqB01qPPbHHtyqec8yq3huHm5eu4Bbnh/LxP6te4GxbAs+itX8I/Q+fTeI85v3r9oFHZH52O6hhsn1t7Xr+IrlSF/Daj7uzx/yzUIRnIRV22xWbXOevv3eWG4s2J33Sf61apvZqm22tYsB4GBGsX3GRFsawlEppZyXUjZJfk/9lv1fsq5dABxI7UH00Q243sVwP/Fr5TJq/+zG5tf0kx7Lh6xI43/8nD+v61ieq7MDn+/92D9DVK5vjOFW7m4s7yX/Hvvz7FPD5Ofz2nUMXpRSRjHmMhIf0z+mzgUk7+XViAMk69oFfMHbEXe+W9cu4L6EIjgpq7a5TJ8kqj3QwG58TPLzqm3OV22zqV0MAAdnNSOcuCEMsU7yR5Jnlcv5mo8Z/4pQeLBh8Lzm9pWvRzzgehfL1F3IMZaJmNreJ/ln13UXJj126l366zqmMMSN7YHPdyyvU9VWzw5dhzgypZR5xhFQHvNk4leNJCR5Y167gJF4m+TpsT6mRuBjxhOW+pxN7QK+YLTXbAhw1erMP3vINwtFcHJWbfNh1TYXSf6ZcbfG4eteJTlftc2ydiEAABxWKWU+dIb4I+PeA/TG5QgngGAf5pXPP9rBw7sYXidqDrifDdsQnbLX6Sc+xtiq+Ji96rputNe167pZ13Wl67qSfrzwX+nbo/+cfnLybXY7hrje4bH2qebP67ziubm/ee0CcoTbaH2q67qLjGMr8KO+r9qRn4f3iG3tQo7YqD8LDz/bMTzfbns11numWza1C7iPv9cuAHZp0bTXSS7u0jVg1TbXSWaLpn2eftCh5p6n3N3b9D/jsb8pAACwI6WU8/QrAp4Pv45hBdpd6RLBKZlXPPeriQxYX6afhKj1Ovc8x7OKfddedV03r13EBP3cdd2ydhF3dZdJiFtdDJ6m39LvfPh6lG9v/fDxCCY6btScxDqveG7uYbhfH0PntqlseTRP8qZyDY9LKaMNtB3Aj13XrWsXceTeH8k9wHXGNT+4rF3AHVznOBao/IVQBFPzJMmbRdO+SrJctc32W9+wapurJFeLpl2m7sADX/c+/c90XbsQAAD2Z5hoeJR+ouHma0wDFN9r1CtjYFeGyZCa+8AvK557Z7qu+1BKuUq9QcZT7RQhELEfvx7JZMh3GdrbJ19YJTlsJXSz1d9s+PUmQHFMk4vbiuc+r3hu7mcM7x/vprLFQdd1m1LK69Tdlizpwxmn2DFCIGI31rULuKPr1H+u3TiWoPcx3c/8l1AEU/UiyfNF014muVy1zTcHIVdts1w07Tr9QMrRJZwm7ufc8ecIAMD3GbahqO08xx18+JL30SWC01FzMuT1kQwe3tVl6o1LnJ3gqtC3AhF78WpoAX9yhjDkZvjj5st/c/S2Fc99XvHc3M+8dgGZ3uT9RepP1D7P9K7rt/wqELEzx/JZeFu7gFtcs6+bPeSbhSKYsrMkL5PMF017MXSE+Kqhs8T8VjhiDC2/Ttnr9FtlbGsXAgAwYe559+dClwhOyKziudcVz71zXdddl1LepV7njVmOdPXXPXzMOFY3T827nN4kGpysEXSLSvqA26ZyDTvVdd22lPIqdRdwntoWGm9PNdC3B6+O6LPwtnYBg3fH8lwbXp9ql/Hd/la7ADiAx0l+XzTtZtG0T7/5t5Os2mazaptZkh/Tf0DmsN4l+deqbZ4LRAAAcKRed133zWA2TEitlYwfJ/pcW1c89ymFBOZHNGB/TFxXHuq8dgF8l1ntAjKxgOQty9oF5HTuCz5mHB1PpmKK9+f7tq5dwNQJRXBKniX5z6JpLxdN++gu37Bqm3X6m/Cf91gXf/qY5N+rtnm6aptN7WIAGD0DrcBYGVDjpJRSZhVPP9UB103Fc59KByHhtf349VhWOTJqU9xWbcpqT5q/n+p2B8P2YG8rl1H753solxPbjq2mqYaW98012zOhCE7RT0m2i6a9UxukVdt8WLXNMsk/0m/nwH78muR81TbHsmcSAPWNYrC1lHKnTlTASXluhSwnZlbx3JMcPBwmld/XOv+J3N9oj717HzOOVc3cQynlUSnleSnlspSySfKmdk0cjVnl868rn3/f1pXP/6SUcqdFpkfsfdd1y9pFTMimdgFH6L1Qzv79vXYBUMlZkl+GYMT8Ll0Jhm0cni+adpb+RkRieTfepv8ZbGsXAgD3NPXBAeD7/Dy1/YzhDma1TjzxVWjXqTf28DQjCaDuySsDz3txKRR4PIbw09P0r+GzGOvkHobH0VnlMtaVz79vV0kuU/c6zzLRIOpgWbuAiZnyY2VfNrULOAVCEZy6x0neLJr2dZKLu0zMDwGK8yFQsUz9m75j9T79NfcGCQDAVLy2wogTVWu7hdrtpPdtk+SHSueeeqcIXSr3Y127AL5s2Opolj+DEMY02YVZ5fO/m3rIreu6D6WUqyQvKpbxNNOd6P441e1XKppysHZfNrULOAW2z4DeD0n+WDTtctG0d1rtOWzzcJ7k1T4Lm6CPSX5etc25QAQAE6FTBJAk75LMaxcBh1Z5m4VNxXMfQs0B5SmHIt4N25OwW6+nPjF5TD7dCqOU0qXfDuNl+nFQgQh2pfb7xbry+Q9lU/n8s8rn36d17QKmxn3WvbhmByAUAX/1Msl20bTzu/zlVdt8WLXNPMk/M/0VKrvwKsn5qm2WtQsBYBLG8oGh9iAQUN+7JDMtwzlR5xXPPZZ7gX0RitiPde0CJmpdu4BTVkp5WkqZl1LWpZRtkv+X5PckP6VeNx9OQ+33i03l8x9K7cWFtX/O+7SuXcDEmCe7B0GSw7B9BvyvsyS/DcGI5bBdxlet2uY6yWzRtM/Tt2C0B99fvc0dryUAfAeTj8AYCERw6moOkk968HBol/0xdVZ0T3kVee2Jpana1C7glNgKgxF5UvHcH09lInG4J3iXetf7rJRyPsGOQO9P5TF0QNvaBRyhd7ULOBVCEfBlz5K8WTTtq/QT+ttvfcOqba4WTbtJcjF8nfoHkvfpr926diEAsEez2gUA1QhEQN1QxLqUUvH001ZKmXVdt6ldx45Nfu/5St56L9yfUsqj9J85Zulfc3V+YBSGcE5Nm8rnP7RN6oZQzjO9Ce9N7QImaFu7gCPkHupAhCLg214keb5o2su7bPuwapsPSZaLpl0nWQ7ff4p+TnI5XA8A2Lmu6zYmQoCKBCKgd17x3CYG+V6b2gVM1KZ2AVNSSrnp/nDzq460jNWjyuc/tRX+tf+9s0zv9X5Tu4AJ2tYu4AjVfm6fDKEIuJuzJC+HLTUuVm3zzVaLQ2eJ+RCOuEzdFOchvU5/jba1CwGAAzEhA6fndZK5QAQkOZ3PuqfoaaY3WWDQeT82tQs4Zre2wpilf96deudZjkfNblHJ6b321H4Pqx2C2YdN7QImaFu7gCNkXOFAhCLg+zxO8vuiad+mn/j/5o3Iqm02SZ4OgYrLTPeDzbv012RTuxDgZLxKsq5dxMg9TfJL7SL2rOaemv810b01gc/7ueu6Ze0iAA5gipMftSeUpsp1/Q5DJ4jn6UMQAtYcs9rvE9vK5z+oruuuK3fLrB2C2TnjOHBahCLgfp4l+c+iaX9NsrzLFhGrtlkvmvYqyUWSl/su8IA+pr8Gl7ULAU7OdoJ7HO/UiWwtMZY09XlObEAGTtDHJM+998CfRrCXOHyXrutM3u/eR52Tvq6U8ih9AOL58DXVBVOcnqqT5Cc6oT2KhSET8bZ2AcBh/a12AXDkfkqyXTTtxV3+8qptPqzaZpnkH5nGm+6vSc4FIgCoaCwD27PaBQB79TrJuUAEcGLOaxewY+9rFzBRY7kfH5VSyqNSyryUcpXk/yX5PcmLCETArryrXUAlNUNoU+tss61dAAzcSx2IThHwcGdJfhmCEfO7bB+xapttktmiaWfpW78/3mN9+3Dn7UMAYM+2tQsYTK6NJJCk7w4x77ruqnYhMFK122azX+e1C9ixbe0CJkqXiFuGDjrz9AEImLqan4NP9bXnOtMLJ9SyrV0ADE719ezghCJgdx4nebNo2tfpAwPbb33DEKA4HwIVy4w/Lf4+/b/NoDAAYzGWgJ5QBEzPr0mWWoLDV3n/45h4Pd+PsdyPVzNsjzFPv2XusS18goeoOZa9rXjumryXAdyT7TNg935I8seiaZeLpr3Tqplh+4nzJK/2WdgDfEzy86ptzgUiABiZsQzCPi6lnNcuAtiJ10n+0XXdhUAEwKSM5b6RiSilnJdSluknZ3+JQAQc0rZ2AadoYuMem9oFAIclFAH78zLJ9aJp53f5y6u2+bBqm3mSf6bfnmIsXiV5umqbZe1CAOBTw4Tlx9p1DGa1CwAe5G2Sf3Vd97zrum3tYgCAcSqlPCqlXCb5I/3439g7vwLTsa18/vPK5we4N6EI2K/HSX5bNO1m0bSzu3zDqm2uV20zS/Jj+u0qanmb5F+rtpnfZSsQAKhoLKv+ZrULAO7lVfrOELOu6za1iwGAI3NSXZVudYb4qW4lwIna1i4A4FgJRcBhPEvyZtG06+/YUmOdfn/Wn3PYFbAfk/y4apvZqm02BzwvANzXpnYBg1ntAoA7e5/k30n+T9d1c50hAODexhJQ3qtSyqyUch2dISDJ5LZRAOAECEXAYb1Isl007fIuf3nYUmOZPhzxeo913fg5yfkQyACAYzGWgdjHpZSntYuYulLK01LKppRyWUpZllLmwyC1a8+3fEzfFeKfXdedd113OWzBAwDwRUN3iDdJnlQuBcbkvHYBAPA9/l67ADhBZ0leLpp2nuRi1TZX3/qGYfuK58MWHJfZ/Yew10Mt2x0fFwAOYVO7gFueZzwhjamape/C9ezT/1FKufnt2+HX6/QtnbfD14eu6/x8Tsv7JFdJrmyNAQB8j2El/FWEIeBzhIsBOCpCEVDP4//f3t0dt3GkawB+Z2vvpROB6AjMjUB0TQCmIxAVgel7Vhmqwr3pCExFsFQAUwYjOGQES0ZwyAj6XGBowVr98AdAzwyepwoly7amP0oiZtD99tdJ/n3SdhdJjh4SSOiPs9jvAxWneX67vpt+7MUzrwMA1ZRSbpumucowJisPk8xqFzFxhw/4f15/8uNfBCcm7ybLoNQiycKxGADAU/RdyBbZvaMyLvLxWeplkn/XLIbhKqVcrny2AoDBE4qA+l4n+c9J2/2eZDbv2m+mbOdde3bSdudZLrr8/IQx7/qxTp/wawFgiBYZRiji+6Zp9izEbkbTNC/zmaDDEz0mOLHofzzzZzsoN1mGWu5fC8dhAADP1TTNUdazGWno7rJ8zr1/jlqs/semaQ62XxLwDS9rFwAwVkIRMBw/Jzk6absHhRX68MTxSdudJjnLwxcIHhy+AIARWeRpQcFNOO5frN9DukSs06fBCYHS7brJsntH8jGYsohuHgDAhvSBiD9q17Eh94HSRZYhCM9TMD77lce3pgCMllAEDMuLJL/1x2McP+RYi/7YjYOTtjtIsveV/3XRX9MHHgCmaFG7gBWHEYrYlG2HIlbdTLgLwQ+1C+gJOwAA1fRHXqeofQAAHtdJREFUZkwpEOFYMaZMx4QKfF4DxkwoAobp+yR/nrTdhyyDDNff+gXfClDMu3a2lsoAYIBKKbdN01xlGEdovGqa5rCUcl67kCnpj874sWIJi4pjb9SnrZIBHsHEODAJfSBiUbuOZ7rK30MQUw30QlK/YwIAI/OP2gUAX/Vjkv+ctN3spO2kXwHg685qF7BCp4j1q9klIrHwB/A5FtyA0evDt2dZdnAdk4sk77Ls+vU/pZT9UspxKeVcIIItuahdwA46qF0AwFgJRcA4/Jrksj9WAwD4vEXtAla87nebsT5HlcdfVB4fAIDNmGUYHee+5a8QRCmlKaUclFJmpRRdIdhFPm9v31XtAgCew/EZMB6vkvzRByOO511rtyIArCilXDZNc5PlPXMIjlN/IX8SmqbZS/K6Ygl3zk4F+G+llEXTNLWGv0lyXWvwHeHex+Q1TXOQ5OfadXzBXZLz/iX4wBBdp97ntBdN07zcwe+Lmp+Ld+33GpgYoQgYn9dJ/vek7d5nGY7wMAIAH51nOJOab5qmmZVSrmsXMgGzyuMvKo8PwH87L6U4rgp4rrPaBXzGRZKzUspZ7ULgG64rj7+fHfqs1m8WqOm68vgAz+L4DBivN0muT9puVrsQABiQs9oFfGJWu4Cx6894Pqxcxnnl8QGGrFYrZW2zgWdpmuYow+kylyTvk3zXH4txVrsYeIDryuPv2rNA7a/3uvL4AM8iFAHj9iLJrydtd33Sdge1iwGA2vojDoZ0zuWbviUvT3ec5TNPTYvK4wMM2XWlcfcqjQtMx6x2Ab2rJD+UUo50mWNkriuPXzsksG21v17HagGjJhQB0/AqyZ8nbad1KADoFjEZfZeI2s83VyanAb6q1gT5kHZ3AyMzoC4R70op+6WURe1CPuNl7QIYtgH8vT2oPP62HVQe/7ry+ADPIhQB0+LDCgAMLxTxup905fGG0CXirPL4AENXbdegbkzAM9QO3ibJ21LKrHYRX1F7VzrjcFNx7FdN0+xVHH/bXtccvO/MCTBaQhEAAExKKeU2y/N4h+S073rAAw2kS0Ti6AyAb7muOLYFO+DRmqbZT/J95TLellLOKtcA61B7ofyg8vhbMYAg6EXl8QGeTSgCAIApOqtdwCdeZHg1Dd1p6neJuLIbBuDr+vfJu0rDC0UAT3FUefzfRxKI2KtdAKNQ+/PSYeXxt6X211n7zxng2YQiAACYnP5s06vadXziR8doPEy/C+ZN7ToiyALwULUmyg8qjQuM20HFsW+SzCqO/xh7tQtgFBaVx/9xR7oyCkUAPJNQBAAAU3Vau4DPOO3b9fJ1Q/mzO69dAMBILCqN+8p9FXiMpmn2UvfojFl/3N8YeH/lm/oNCbXVDgxsVP+s86pyGYvK4wM8m1AEAACT1LekvaldxydeJDnbkZ0sT9I0zSz1z3hOkg+llOvaRQCMxKLi2JNeCAHWruZC/91Ijs24D4/UPsqO8bioPP5R5fE37bjy+Dc+GwNTIBQBAMCUzWoX8Bnfx7EMn9Ufm/Fr7Tp6Z7ULABiLyrtEjyqODYxPzVDEmLqQHdQugFGp/Xf7dR/kmZx+Q0XtAGjtP1+AtRCKAABgsgbaLSJZnnt6VruIIekne4Yy2XJTShlKLQBj8aHSuI7QAB7joOLYi4pjP9ZB7QIYlUXtAjLMDRHrcJz6XVsWlccHWAuhCAAApm5Wu4AveNM0Te02mIPQByIWqT/Zc++sdgEAI1QzTDa5+2nTNC8dtwUbsVdx7OuKYz9W7Z3pjEgp5TL1NyO8mWi3iKPK49/ZMABMhVAEAACTNuBuEUnyW9M0R7WLGIDTLI8VGYK7LOsB4HFqTpgfTjBAcJzk/5qmuW2aZtE0zWnTNMdN0xxM8GuFbXpVa+DKRw09WNM0hxlOWJnxGMLC+ax2AevUNM0sFd+zekP4cwVYC6EIAAB2wax2AV/xxy53jOiPEXlTu44VZ6WU29pFAIxN/955UWn4F5let4ij/scXSV4n+TnJb0n+jLAEPMlEd5Fvgi4RPMVZ7QKy7BYxiSO1+nv6EJ5thCKAyRCKAABg8vpuEbUWah7itz4csFMGGIhIdIkAeI6zimMfTyUU0HeR+tbOUGEJeLy92gUMXf9+MbTnc0ZgIEdoJNP5PHea+h1bHJ0BTIpQBAAAu2JWu4BveNM0zfkuLFz056SfZXgTru9LKde1iwAYsZoT5y8y/Hv9Q82e8WuFJYDnGMLOdMZrCIGE12PvxNg0zUGG8Vn5rHYBAOskFAEAwE7oz/B9X7uOb/gxyWIqLT8/p1+AWWQYkzyr7mISGOBZ+iM0at5rfx77PfSBXSKe4kFhiQ2MC4zEgNr1M15ntQvo/TbW54H++3Ao3RmGEHIBWBuhCAAAdslxlovfQ/Z9lsGIyU1I9jterrP8GofmtF/MA+B5znZ8/CfrF0K2vQCxGpY42PLYsFNGsEg7S/12/YzYAMKRq8bahfE8w/g+vNBFEZgaoQgAAHZGP0lzVLuOB3iR5e6WRdM0e5VrWYumaWZZ7kodwgTPp+5iFwzAWvSdma4qlvB90zRjfU+fpe59cig7U2Gq9moX8CV9YOPn2nUwCWe1C+i9ysjua/0Rk69r19Eb67MUwBcJRQAAsFNKKedJPtSu44FeJ/lP0zSzke5ySX9m+XWSX2vX8hXHukQArFXtifSfm6Y5rFzDo/T11l6QHNXiEYzQkN+XzmoXwDT04ciL2nX0XvdBg8HrO0UO5YjJm37eBGBShCIAANhFRxn+MRqrfk1y3Z8zPgpN0+w1TXOeZXeITZyNvi4XpZSz2kUATEn/vnpTuYyzEbSqT7K8Z6b+guQHAUHYuEGGIvpF4yEeb8d4zWoXsOLN0IMRfSDit9p1rJjVLgBgE4QiAADYOSM6RmPViyR/NE1zPeTOEU3T7PeTTv9J8mPlch7iuHYBABM1qzz+iySLoQcj+vv5EM4PP6s8PuyCF0MLOff1DGV3OhMxsG4RyTIYsRjiZ+j+s/OQAhE3Ng0AUyUUAQDATurbQf5eu44neJWPnSPOmqY5qFxPmqZ52TTNUdM0l0n+N+OZWH1XSrmsXQTAFA2kW8SggxH94swi9Xdoa5PNrriuXUDqB8b+0gci/qhdB5M1q13AJ15nQM8E/WfoRYb32XlWuwCATRGKAABgl82SXNUu4oleZDmB8mffPeJ0m+en98djHPVHZPxflhOqtRd1HuOqlDKrXQTAxM1qF5CPwYij2oWsGlAgItElgh1RSrmuXUOSV03TzGoXIRDBpvXdIj7UruMT3yf539rfg/3n9ussgxpD4mhJYNKEIgAA2Fn9MRqHSe5q1/JMr5L8nOTfTdOUvjXorGmaw/6c8mdrmuagaZrjvjvFdZbHY/yRcRyR8am7jO/4FIDR6SfWh9A++/4IqtMhtM7ud6leZhiBiLskp7WLgC2q3cEmSX6t2e2taZrTjCAQsc3ANxsz1KMKf22a5nLb34f9xoJFkn+n/rFZnzOrXQDAJv2zdgEAAFBTKeW6n3D7s3Yta/Q6K7tOmqZJlh0xbrPckXL9jV//Msl9W9H9DHPC5jlmjs0A2JrjLI9WGoKfkxw2TXPU72DduqZpjjOss8PP+pAo7IrLLAPFtZ03TXOwzWfSPix9luHtTv+SWdM0C+9R49V/1n6X5fGPQ/N9ll0XL7L8fLjY1EB9GPI4wzsqY9X7Ws9GANsiFAEAwM4rpSyapnmbEeyYeob73ahjmQTdlPelFDtiAbaklHLZNM3vWQYShuBVtrQIsqrfjXqaYXSHWOWeyK65zDA6nb3Iso3/2220q++PCzjO88LON/01jrKd38Pvk1w3TfO14MhlKWWo3QhIUkqZ9ce1DCGM9Dmvs3wuuMnynni+jqN2+s5Uh1l+zwzt3v+puwy3qwfA2ghFAABAli2++wWLIe/e4HmuYrIHoIZZlgsDQ1oQuV8EuciyW8LZugcYwYLIu3Us/MDILDKsXet/9F3rjtf9/bjyHjTLet5/Z6WU8yy7XCyynbD1iy2Nw2YdZfidGV9l2cnptz4gsehf1w8JUPbdIPaSHPSvId73v+RIRxZgFwhFAABAr5Ry1B81IRgxPXcx2QNQRSnltt8lOsQFkddJXjdNc5rkPP0iyFMXJ/v29AdZLkQOYTf6l9xFlwh2UN8h7i7DOh7uxyQ/Nk3zPsnpc4/U6Bdnj/rXur7Om0/CY4IKPFj/fTekrlHf8irLOYE3yV/HUSYfj6S89zLjCj98zoc+7AQweUIRAACwog9G7Gf8kxv83VbPbAbg70awIPIif18Aucuyzf5lPi6ArP7zfpaLIclyZ+hexrVIOBMUZIedZ5gh6DdJ3jxml3ofxNrL8j3poH9tIvAxWxnzYAPXZ+JKKcf9350xf84ec+2fc5NleApgJwhFAADAfzvIchJyapMeu+qtQATAIMwynpbS9y3bxxR0eKirUoouEeyyoYYi7n1pl/p9WGsv2z2O6OKTLhEHWxybaTnM8u/wkDq17LJDAUlgl/yjdgEAADA0/cTAQZbtMRm3t5s4Jx6Ax+vvr0dZLuxRz1HtAqCmvlX8GN+H7sNa2wxEJCtdInr7Wx6fieiPpjqqXAZLNg4AO0coAgAAPkMwYhJ+EYgAGJZ+Av6odh077J1FEEiS6JbyMO8/c3zHXoU6mIg+lPSudh077r3PycAuEooAAIAvWAlGvK9cCo/3u9bgAMPUL4j8UruOHXRRSpnVLgIG4jTj7BaxTXdJjj/z78dwBBID1t+LfMau40Mp5ah2EQA1CEUAAMBXlFJu+0kDkzbj8baU8rkJXAAGog+uubduz1106IC/9OFnAdqvm/W/T39pmuZlrWKYlv4z9ofadeyYq3gWAHaYUAQAADxAP2ljV+vwvdUKFGAchA636rA/yx34SLeIL7v4Qte1/a1XwpQdxXGV23KV5ODToBPALhGKAACAB+onBn+KydMhukvyk0AEwLgIRmzF21LKonYRMDT94uCsdh0DdJfksHYRTN/KcZWCEZslEAEQoQgAAHiU/hz0g5i4GZK7LCd5zmsXAsDjCUZs1DuBQfiyPvR8UbuOgTmyeMq2CEZsnEAEQE8oAgAAHqmUcpnlxI0FnPoukuz1fyYAjJRgxEa8L6XMahcBI3AYneDuvRM0ZttKKbellP14Dlg3gQiAFUIRTI0PMADAVvQTN0dxnEZN70opJnkAJqK/r/5eu46JeN//fgLf0D9LOi5CkIrKPAes1ftSyr7PygAfCUUwNXvx4AQAbFG/k2o/2u5u012SH0zaAkxPKeU4ydvadYzcLwIR8DillEV2+73nKsnxt/6n/vcJNsZzwFp4DgD4DKEIJmXetbfzrj1O8l0sTAAAW1JKuS6lHGQ5eaNrxGZ9yPK4jEXtQgDYjFLKWZJ/xT31Kd6WUk5rFwFj1L/37OJi7GNb7HtvZqNWngNuKpcyNvebBzwHAHyGUASTNO/a63nXHmTZztrDEwCwFf3kzV6chboJN0l+KqUcagEKMH2llMss76k2PDzMXZJ/9c8iwBPtYDDisYGIJFlsqBb4S/8csJ9lKJ5vu4jNAwBfJRTBpM279nzetXtJ3kWKGQDYglLKbd+q8odYyFmXd0n2+6NKANgR/T31IMkv8Zn+a+67KF3WLgSmYIeCERd5fCAiSTyTsxX9c8BhlhsfPQd83l2Wx2U85XsZYKcIRbAT5l07i12bAMAWlVIWK0dq6Fz1NO+TfFdKmZngAdhdfRvo/Qgbfup+IUQXJVizHWjf//6pi6j9781Uf18YoD4cvxddIz51keXmAcdlADyAUAQ7Y961t/OuPYpdmwDAFpVSzkopexGOeIyLLM9CPSqlXNcuBoD6SinXK2FDu0WXC0MWQmCDJtq+/y7J276z3XMcr6EWeLCVrhE/xOfq+6MlD3xeBng4oQh2zrxrF/OuPYiFCQBgiz4JR1xVLmeoPmQZhjhwFioAn9PvUN7L7h6TeZPlvfLQQghs3sTa99/vKj977oX6nfs68rJ1fUfGvezm3P5dknellD1HSwI8nlAEO2vetWdZpr3fVS4FANghfThiP8sdLiYSlxM798dkHApDAPAt/SLlLMvP9LtyL73Jcnf3nnslbN9K+/4xBrLuj9pZ667yvtvErrwHMzB9uOd+bn/q4Yi7LL/Ovf75B4AnEIpgp/VHasySfJdptcIDAAau3+FylOR/kvyS6U/kfOoqy909e47JAOAp+iM1jrL8TD/GhcqHuMrHMMRZ7WJgl60EsvYyjvec1YXUjRy1078H/5Lh/14wQfffkxPuHHGT5ffXXv913tYuCGDMhCIgybxrr+dde38mmXbWAMDW9BM5p/1Ezr+S/J7pTebcu8ny6/uulLLfd80wsQPAs/ThiFmWC5VTOKbqvovSD/f3y8r1ACs+CUf8kuG95/xtV/mmn7f7wMVedjPozUCsHFc5hY6MH5L81AciT31mBlgPoQhYMe/axbxr9yPhDABUUEq5LKUcrwQk3mV4k6yPdZXl1/GvflLnWFcIADahX6i8P6bqu4wvaPghf++itKhcD/AVK+Hm/Qwj3Pwhy84yL7e9q/yToPd3Wb6X/Z7kIuN6H2bkPunI+Dbj6Q59/wzwP/2xkue1CwKYmqaU8qRfeNJ2iySvnzP4vGub5/x62KSTtnuZZJbk58qlPMa7/jgQWIuTtjtI8uczL+PvJcAzNU3zMsnByuv7iuV8y1WSxf3LrhYAamuaZj/L++dhnjmXtWbumTBBTdPs5e/P7q82NNRVkssk5/EeAl+08nn6MJv9nnyMu/Tfu0nOff8CbN4/axcAQzXv2tskxydtd5bkNMOaOAEAdkg/QXLev5IkTdMcJNnPslXtfv96seXSLpJcZzkZe2lHKwBDVEq5zPJedZr8dQ89yMf75zYWR26yvGcu+losYMJE9V3RzvpXkr/ed/Y+eSXffoa/f+9Ilu8ft/n47O09BB7g08/TK8Gl++eAbcz7X6T/3s3yGeB6C2MCsEIoAr5h3rWXSQ5O2u4wywmUISRJAYAd1wcQFqv/rt8Bs5/k/ses/DwrP//axOtdlhM1925Xfn55/3OTsACM1af30JX7517/Wr2PJt9eLLlY+efV++ZiZTxgh3kfgOFYCS79pQ9K7OXj5+f7n6f/+de6NV5lef9PPj4H3P94LQABMAxCEfBA8649T3J+0nazJMfZ/k5MAICv6oMKi/6nziAFgAf45P4JAOyYPrhwHc8DAJP1j9oFwNjMu3aWZWL0feVSAAAAAAAAAPgKoQh4gnnXXs+79ijJD/l7m0wAAAAAAAAABkIoAp5h3rWLedceJHmb5fnbAAAAAAAAAAyEUASswbxrz5LsJXlXtxIAAAAAAAAA7glFwJrMu/Z23rWzJN8l+VC5HAAAAAAAAICdJxQBazbv2ut51x4m+SHJTe16AAAAAAAAAHaVUARsyLxrF/Ou3UvyS5K7yuUAAAAAAAAA7ByhCNiwedeeJtlL8nvlUgAAAAAAAAB2ilAEbMG8a2/nXXuc5F9JLmrXAwAAAAAAALALhCJgi+Zdeznv2oMkPyW5qVwOAAAAAAAAwKQJRUAF8649T7Kf5F2Su8rlAAAAAAAAAEySUARU0h+pMcsyHPG+cjkAAAAAAAAAkyMUAZXNu/Z63rVHSX5IclW3GgAAAAAAAIDpEIqAgZh37WLetftJ3saRGgAAAAAAAADPJhQBAzPv2rMke0ne1a0EAAAAAAAAYNyEImCA5l17O+/aWZLvklxULgcAAAAAAABglIQiYMDmXXs979qDJD8kualcDgAAAAAAAMCoCEXACMy7djHv2r0kvyS5q1wOAAAAAAAAwCgIRcCIzLv2NMlekveVSwEAAAAAAAAYPKEIGJl5197Ou/Yoyb+SXNStBgAAAAAAAGC4hCJgpOZdeznv2oMkPyW5qVwOAAAAAAAAwOAIRcDIzbv2PMl+kndJbiuXAwAAAAAAADAY/6xdAPB88669TTKrXQcAAAAAAADAkOgUAQAAAAAAAABMklAEAAAAAAAAADBJQhEAAAAAAAAAwCQJRQAAAAAAAAAAkyQUAQAAAAAAAABMklAEAAAAAAAAADBJQhEAAAAAAAAAwCQJRQAAAAAAAAAAkyQUAQAAAAAAAABMklAEAAAAAAAAADBJQhEAAAAAAAAAwCQJRQAAAAAAAAAAkyQUAQAAAAAAAABMklAEAAAAAAAAADBJQhEAAAAAAAAAwCQJRQAAAAAAAAAAkyQUAQAAAAAAAABMklAEAAAAAAAAADBJQhEAAAAAAAAAwCQJRQAAAAAAAAAAkyQUAQAAAAAAAABMklAEAAAAAAAAADBJQhEAAAAAAAAAwCQJRQAAAAAAAAAAkyQUAQAAAAAAAABMklAEAAAAAAAAADBJQhEAAAAAAAAAwCQJRQAAAAAAAAAAkyQUAQAAAAAAAABMklAEAAAAAAAAADBJQhEAAAAAAAAAwCQJRQAAAAAAAAAAkyQUAQAAAAAAAABMklAEAAAAAAAAADBJQhEAAAAAAAAAwCQJRQAAAAAAAAAAkyQUAQAAAAAAAABMklAEAF+zt4ZrLNZwDQAAAAAAAHg0oQgAvmavdgEAAAAAAADwVEIRAAAAAAAAAMAkPScUcfncwU/abu+51wAAAAAAAAAA+JznhCJu1zD+3hquAQAAAAAAAADwXxyfAQAAAAAAAABMklAEAAAAAAAAADBJQhEAAAAAAAAAwCQJRQAAAAAAAAAAkyQUAQAAAAAAAABMUu1QxF7l8QH4uoM1XON6DdcAAAAAAACAR3tOKGKxhvH31nANAAZs3rXXtWsAAAAAAABgN9XuFAEAAAAAAAAAsBG1QxH7lccH4Ote1y4AAAAAAAAAnuo5oYjrNYz/cg3XAGC4LmoXAAAAAAAAwO56cihiTWfE6xQBMFAnbXdQuwYAAAAAAAB4jucen3HzzF//4qTt9p55DQA2Yx3Btcs1XAMAAAAAAACe5LmhiOs11HCwhmsAsH4Ha7jG7RquAQAAAAAAAE/y3FDEOnYAH63hGgCsUd/F58c1XGqxhmsAAAAAAADAkwwhFPH6pO0O13AdANZntqbrXK/pOgAAAAAAAPBoQwhFJMnpSdu9XNO1AHiGk7Y7SPJmDZe6mXft9RquAwAAAAAAAE/yrFDEvGsvk9ytoY5XSc7WcB0AnqEPqJ2v6XKLNV0HAAAAAAAAnuS5nSKS9S2e/XjSdmdruhYAj9QHIhZJXqzpkos1XQcAAAAAAACeZEihiCR5IxgBsH0rgYjv13jZdd4fAAAAAAAA4NGaUsqzL3LSdrdZ387iJLlIcjjv2ts1XhOAzzhpu4MsjzB6tcbLvp937dEarwcAAAAAAACPto5OEUlyuqbr3Hud5Pqk7Y7XfF0Aeidt97LvzvNn1huISJYhCwAAAAAAAKhqXZ0iXia5znq7Rdy7y3JxbZHkct611xsYA2An9F0h9pIcJvlxQ8NczLv2YEPXBgAAAAAAgAdbSygiSU7abpbk17Vc7NtusgxhJMllki8ds3Hb/3eAqTr4yn/b619Jsp/NBNc+54d51y62NBYAAAAAAAB80T/XeK3TJEdZfwv2z3m1Ms7rLYwHwMO8F4gAAAAAAABgKP6xrgvNu/Y2y1AEALvpLslx7SIAAAAAAADg3tpCEUnS7w7+fZ3XBGA0jvqAHAAAAAAAAAzCWkMRvVmSqw1cF4Dhej/v2vPaRQAAAAAAAMCqppSy9ouetN1+kkWSF2u/OABDczXv2v3aRQAAAAAAAMCnNtEpIvOuvUxykOX58gBM11WW7/cAAAAAAAAwOBsJRSR/BSOON3V9AKq7SnIw79rb2oUAAAAAAADA52wsFJEk8649S/JTdIwAmBqBCAAAAAAAAAavKaVsfJCTtttPskjyYuODAbBpAhEAAAAAAACMwlZCEUly0nZ7Sc6TfL+VAQHYhPfzrj2qXQQAAAAAAAA8xNZCEfdO2m6W5NetDgrAc90lOZp37XntQgAAAAAAAOChth6KSP46TuMsukYAjMH7JMeOywAAAAAAAGBsqoQi7p203VGSWZJX1YoA4EsukszmXbuoXQgAAAAAAAA8RdVQxL0+HHEcnSMAhuBDklNhCAAAAAAAAMZuEKGIeydtt5fksH+9rlsNwM64S7JIcp7k3DEZAAAAAAAATMWgQhGfOmm7/ST7Sfb6H1/2/+y4DYDHu0pym+S6f10muZx37XW9kgAAAAAAAGBzBh2K+JaTtnuZZVjiS7713wHGbvG1/+gIDAAAAAAAAHbZqEMRAAAAAAAAAABf8o/aBQAAAAAAAAAAbIJQBAAAAAAAAAAwSUIRAAAAAAAAAMAkCUUAAAAAAAAAAJMkFAEAAAAAAAAATJJQBAAAAAAAAAAwSUIRAAAAAAAAAMAkCUUAAAAAAAAAAJMkFAEAAAAAAAAATJJQBAAAAAAAAAAwSUIRAAAAAAAAAMAkCUUAAAAAAAAAAJMkFAEAAAAAAAAATJJQBAAAAAAAAAAwSUIRAAAAAAAAAMAkCUUAAAAAAAAAAJMkFAEAAAAAAAAATNL/AzP5VXIvEsEeAAAAAElFTkSuQmCC;fontSize=14;" parent="1" vertex="1">
          <mxGeometry x="-370" y="280" width="146.68" height="30" as="geometry" />
        </mxCell>
        <mxCell id="yHnW5Rzm3PxU6Jlyl-KG-12" style="edgeStyle=orthogonalEdgeStyle;rounded=0;orthogonalLoop=1;jettySize=auto;html=1;entryX=0;entryY=0.5;entryDx=0;entryDy=0;entryPerimeter=0;fontSize=14;" edge="1" parent="1" source="KQ8KpgigSJFvTlivIibW-47" target="yHnW5Rzm3PxU6Jlyl-KG-2">
          <mxGeometry relative="1" as="geometry">
            <Array as="points">
              <mxPoint x="40" y="377" />
            </Array>
          </mxGeometry>
        </mxCell>
      </root>
    </mxGraphModel>
  </diagram>
</mxfile>
